Boon.sfdir

StartChar: period
Encoding: 46 46 104
Width: 260
VWidth: 0
Flags: W
HStem: -6 140<55.8748 164.125>
VStem: 40 140<9.87476 118.125>
LayerCount: 2
Fore
SplineSet
180 64 m 0
 180 25 149 -6 110 -6 c 0
 71 -6 40 25 40 64 c 0
 40 103 71 134 110 134 c 0
 149 134 180 103 180 64 c 0
EndSplineSet
Validated: 1
EndChar

StartChar: B
Encoding: 66 66 103
Width: 750
VWidth: 0
Flags: W
HStem: 0 100<190 493.945> 400 90<190 458.642> 770 90<190 455.306>
VStem: 80 110<100 400 490 770> 520 110<548.651 711.459> 560 110<159.636 332.443>
LayerCount: 2
Fore
SplineSet
80 0 m 1xf4
 80 860 l 1
 330 860 l 2
 551 860 630 757 630 620 c 0xf8
 630 564 601 494 530 452 c 1
 644 413 670 321 670 241 c 0
 670 66 557 0 420 0 c 2
 80 0 l 1xf4
190 400 m 1
 190 100 l 1
 390 100 l 2
 469 100 560 136 560 242 c 0xf4
 560 348 483 400 380 400 c 2
 190 400 l 1
190 490 m 1
 370 490 l 2
 457 490 520 548 520 630 c 0xf8
 520 712 465 770 340 770 c 2
 190 770 l 1
 190 490 l 1
EndSplineSet
Validated: 1
EndChar

StartChar: uni0E01
Encoding: 3585 3585 0
Width: 590
VWidth: 0
Flags: W
HStem: 0 21G<80 180 420 520> 532 80<199.749 374.026>
VStem: 80 100<0 353.211> 420 100<0 483.946>
LayerCount: 5
Back
SplineSet
295 612 m 5
 452.277 612 520 516.856 520 395 c 6
 520 0 l 5
 410 0 l 5
 410 395 l 6
 410 475 373.569 527 295 527 c 4
 227.35 527 172 495 140 440 c 5
 255 400 l 5
 255 400 190 344.205 190 280 c 6
 190 0 l 5
 80 0 l 5
 80 280 l 6
 80 336.265 112 371 145 390 c 5
 30 430 l 5
 62 507 145 610 295 612 c 5
EndSplineSet
Fore
SplineSet
295 612 m 1
 452.277 612 520 516.856 520 395 c 2
 520 0 l 1
 420 0 l 1
 420 395 l 2
 420 475 373.569 532 295 532 c 0
 227.35 532 162 495 130 440 c 1
 245 400 l 1
 245 400 180 344.205 180 280 c 2
 180 0 l 1
 80 0 l 1
 80 280 l 2
 80 336.265 102 371 135 390 c 1
 30 430 l 1
 62 507 145 610 295 612 c 1
EndSplineSet
Layer: 2
SplineSet
305 612 m 1
 462.277 612 510 516.856 510 395 c 2
 510 0 l 1
 450 0 l 1
 450 395 l 2
 450 475 431.569 564 305 564 c 0
 208.35 564 141 496 110 450 c 1
 230 405 l 1
 230 405 170 371.205 170 280 c 2
 170 0 l 1
 110 0 l 1
 110 280 l 2
 110 336.265 132 376 165 395 c 1
 50 430 l 1
 82 507 155 610 305 612 c 1
EndSplineSet
EndChar

StartChar: uni0E02
Encoding: 162 3586 53
Width: 590
VWidth: 0
Flags: W
HStem: -12 85<271.822 398.178> 346 55<110.377 189.623> 541 65<180.478 268.028>
VStem: 50 55<405.609 486.251> 160 100<85.4573 245.197> 195 55<406.377 486.027> 289 81<383.666 521.326> 410 100<85.4573 590>
LayerCount: 2
Fore
SplineSet
210 606 m 0xf7
 294 606 370 549 370 446 c 0
 370 338 260 249 260 170 c 2
 260 150 l 2
 260 122 261 73 335 73 c 0
 409 73 410 122 410 150 c 2
 410 590 l 1
 510 590 l 1
 510 150 l 2
 510 112 507 -12 335 -12 c 0
 163 -12 160 112 160 150 c 2
 160 170 l 2xfb
 160 295 289 367 289 460 c 0
 289 511 252 541 210 541 c 0
 198 541 191 540 180 536 c 1
 223 528 250 488 250 446 c 0
 250 391 205 346 150 346 c 0
 95 346 50 388 50 451 c 0
 50 550 131 606 210 606 c 0xf7
150 491 m 0
 126 491 105 470 105 446 c 0
 105 422 126 401 150 401 c 0
 174 401 195 422 195 446 c 0xf7
 195 470 174 491 150 491 c 0
EndSplineSet
Validated: 1
EndChar

StartChar: uni0E03
Encoding: 3587 3587 18
Width: 690
VWidth: 0
Flags: W
HStem: -12 80<314.588 453.803> 287 65<128.321 207.788> 442 65<128.301 208.012>
VStem: 45 78<356.639 482.837> 170 115<95.4065 217.569> 213 64<357.345 436.655> 327 80<364.948 530.434> 470 110<86.7188 590>
LayerCount: 2
Fore
SplineSet
160 612 m 5xf7
 230 560 l 5
 300 612 l 5
 300 612 407 564 407 422 c 4
 407 305 285 232 285 150 c 4
 285 113 321 68 383 68 c 4
 445 68 470 110 470 110 c 5
 470 110 470 131 470 200 c 6
 470 590 l 5
 580 590 l 5
 580 105 l 5
 580 105 556 -12 380 -12 c 4
 232 -12 170 44 170 150 c 4xfb
 170 236 327 335 327 445 c 4
 327 521 293 546 293 546 c 5
 230 500 l 5
 165 546 l 5
 165 546 136 528 128 500 c 5
 139 505 156 507 167 507 c 4
 228 507 277 460 277 397 c 4
 277 334 228 287 166 287 c 4
 104 287 45 327 45 420 c 4
 45 573 160 612 160 612 c 5xf7
168 442 m 4
 144 442 123 422 123 397 c 4
 123 372 144 352 168 352 c 4
 193 352 213 372 213 397 c 4xf7
 213 422 193 442 168 442 c 4
EndSplineSet
Validated: 1
EndChar

StartChar: uni0E04
Encoding: 3588 3588 96
Width: 730
Flags: W
HStem: 0 21G<145 258.913 525 635> 210 65<319.228 400.512> 365 65<320.107 400.456> 532 80<265.194 457.078>
VStem: 95 90<216.979 446.849> 145 110<0 182.863> 405 65<279.488 360.512> 525 110<0 458.475>
LayerCount: 2
Fore
SplineSet
360 612 m 4xfb
 532 612 635 504 635 334 c 6
 635 0 l 5
 525 0 l 5
 525 334 l 6
 525 466 472 532 360 532 c 4
 229 532 185 422 185 344 c 4xfb
 185 297 194 257 206 216 c 5
 232 325 268 430 360 430 c 4
 427 430 470 381 470 320 c 4
 470 259 421 210 360 210 c 4
 328 210 300 230 300 230 c 5
 264 175 255 0 255 0 c 5
 145 0 l 5xf7
 145 188 95 210 95 337 c 4
 96 499 188 612 360 612 c 4xfb
360 365 m 4
 335 365 315 345 315 320 c 4
 315 295 335 275 360 275 c 4
 385 275 405 295 405 320 c 4
 405 345 385 365 360 365 c 4
EndSplineSet
EndChar

StartChar: uni0E05
Encoding: 3589 3589 43
Width: 620
VWidth: 0
Flags: W
HStem: 0 21G<80 180 450 550> 220 60<259.259 340.731> 370 60<261.149 340.731>
VStem: 40 90<212.519 477.545> 80 100<0 179.284> 345 60<284.269 365.731> 450 100<0 496.406>
LayerCount: 5
Back
SplineSet
210 612 m 5xec
 305 542 l 5
 410 612 l 5
 548 575 569 461 570 340 c 5
 570 12 l 5
 570 12 538.22 -6 460 -6 c 5
 460 380 l 6
 460 452 459 492 405 524 c 5
 305 462 l 5
 210 524 l 5
 149 485 145 431 145 380 c 4xec
 145 328.855 148.518 282.133 163 225 c 5
 179 331 209 430 305 430 c 4
 372 430 415 381 415 320 c 4
 415 259 366 210 305 210 c 4
 273 210 245 230 245 230 c 5
 209 175 200 -6 200 -6 c 5
 119.337 -6 90 12 90 12 c 5xdc
 90 200 50 206 50 340 c 5
 51 461 77 563 210 612 c 5xec
305 365 m 4
 280 365 260 345 260 320 c 4
 260 295 280 275 305 275 c 4
 330 275 350 295 350 320 c 4
 350 345 330 365 305 365 c 4
EndSplineSet
Fore
SplineSet
300 552 m 5xf6
 400 612 l 5
 400 612 550 570 550 380 c 6
 550 0 l 5
 450 0 l 5
 450 380 l 6
 450 518 390 527 390 527 c 5
 300 477 l 5
 210 527 l 5
 210 527 130 513 130 350 c 4xf6
 130 316 146 268 155 210 c 5
 165 287 191 430 300 430 c 4
 358 430 405 383 405 325 c 4
 405 267 358 220 300 220 c 4
 272 220 246 231 228 249 c 5
 204 177 180 99 180 0 c 5
 80 0 l 5xee
 80 184 40 229 40 350 c 4
 40 588 200 612 200 612 c 5
 300 552 l 5xf6
300 370 m 4
 275 370 255 350 255 325 c 4
 255 300 275 280 300 280 c 4
 325 280 345 300 345 325 c 4
 345 350 325 370 300 370 c 4
EndSplineSet
EndChar

StartChar: uni0E06
Encoding: 166 3590 44
Width: 630
VWidth: 0
Flags: W
HStem: -6 70<134.838 215.162> 154 70<135.264 187.821> 306 50<114.317 186> 436 50<113.318 186> 541 65<117.676 211.262>
VStem: 30 80<359.189 495.132> 60 70<68.8382 149.162> 190 50<360 432> 220 70<69.264 114.761> 230 45<466 492.95> 320 80<397.949 541.862> 450 100<85 590>
LayerCount: 2
Fore
SplineSet
160 606 m 0xfd30
 211 606 233 583 251 550 c 1
 270 603 l 1
 310 603 l 1
 367 586 400 528 400 446 c 0
 400 357 312 296 281 198 c 1
 350 171 408 131 450 85 c 1
 450 590 l 1
 550 590 l 1
 550 80 l 2
 550 17 501 -6 440 -6 c 1
 385 54 339 88 290 115 c 1
 290 109 l 2xfcb0
 290 45 239 -6 175 -6 c 0
 111 -6 60 45 60 109 c 0
 60 173 111 224 175 224 c 2
 179 224 l 1
 211 323 320 390 320 470 c 0
 320 520 308 535 299 543 c 1
 275 466 l 1
 230 466 l 1xfa70
 230 503 198 541 160 541 c 0
 128 541 106 510 101 472 c 1
 115 481 132 486 150 486 c 0
 200 486 240 446 240 396 c 0
 240 346 200 306 150 306 c 0
 79 306 30 365 30 456 c 0
 30 533 89 606 160 606 c 0xfd30
150 436 m 0
 128 436 110 418 110 396 c 0
 110 374 128 356 150 356 c 0
 172 356 190 374 190 396 c 0xfd30
 190 418 172 436 150 436 c 0
175 154 m 0
 150 154 130 134 130 109 c 0
 130 84 150 64 175 64 c 0
 200 64 220 84 220 109 c 0xfab0
 220 134 200 154 175 154 c 0
EndSplineSet
Validated: 1
EndChar

StartChar: uni0E07
Encoding: 3591 3591 44
Width: 620
VWidth: 0
Flags: W
HStem: 372 75<350.475 399.457> 537 75<350.475 429.525>
VStem: 270 75<452.475 531.525> 400 110<113.035 372.406> 435 75<451.438 530.488>
LayerCount: 2
Fore
SplineSet
390 612 m 0xf0
 456.274 612 510 558.274 510 492 c 2
 510 12 l 1xe8
 510 12 466 -12 390 -12 c 1
 315 133 179 256 35 320 c 1
 35 430 l 1
 127 393 329 277 415 113 c 5
 415 113 400 161 400 203 c 6
 400 372.406 l 1
 396.7 372.134 393.37 372 390 372 c 0
 323.726 372 270 425.726 270 492 c 0
 270 558.274 323.726 612 390 612 c 0xf0
390 537 m 0
 365.147 537 345 516.853 345 492 c 0
 345 467.147 365.147 447 390 447 c 0
 414.853 447 435 467.147 435 492 c 0
 435 516.853 414.853 537 390 537 c 0
EndSplineSet
EndChar

StartChar: uni0E08
Encoding: 3592 3592 45
Width: 640
VWidth: 0
Flags: W
HStem: 187 75<190.475 270.134> 352 75<190.475 270.764> 532 80<148.233 367.971>
VStem: 110 75<267.475 346.525> 410 120<8.6629 85.8519> 430 100<170 470.289>
LayerCount: 2
Fore
SplineSet
270 612 m 4xf4
 421 612 530 532 530 341 c 6xf4
 530 12 l 5
 530 12 480.925 -12 410 -12 c 5xf8
 387.683 75.7168 373.471 136.322 324.438 235 c 5
 302.465 210.45 265.54 187 230 187 c 4
 163.726 187 110 240.726 110 307 c 4
 110 373.274 163.726 427 230 427 c 4
 334.283 426.932 385.299 299.844 430 170 c 5
 430 387 l 6
 430 474 372.302 532 265 532 c 4
 182 532 112.773 496.66 40 437 c 5
 40 522 l 5
 88 569.547 163.68 612 270 612 c 4xf4
230 352 m 4
 205.147 352 185 331.853 185 307 c 4
 185 282.147 205.147 262 230 262 c 4
 254.853 262 275 282.147 275 307 c 4
 275 331.853 254.853 352 230 352 c 4
EndSplineSet
EndChar

StartChar: uni0E09
Encoding: 3593 3593 46
Width: 680
VWidth: 0
Flags: W
HStem: -15 75<446.496 533.504> 207 65<144.666 185> 362 65<144.552 225.448> 535 80<176.082 408.266>
VStem: 75 65<276.552 357.448> 185 110<120.042 207> 230 65<276.438 357.334> 365 75<67.0351 110> 465 110<250.656 479.505> 540 75<66.496 154.064>
LayerCount: 5
Fore
SplineSet
315 615 m 0xfb80
 466 615 575 535 575 344 c 2
 575 227 l 1xfb80
 566 225 558 222 550 220 c 1
 589 199 615 157 615 110 c 0
 615 41 559 -15 490 -15 c 0
 421 -15 365 41 365 110 c 1
 343.923 87.5361 272.182 7.5 263 -12 c 5
 214.938 -12 185 19.8721 185 59 c 6
 185 207 l 1
 124.249 207 75 256.249 75 317 c 0
 75 377.751 124.249 427 185 427 c 0xfd40
 245.751 427 295 377.751 295 317 c 2
 295 212 l 2
 295 177.875 277 120 277 120 c 1
 313 170 394 244 465 257 c 1
 465 390 l 2
 465 477 417.302 535 310 535 c 0
 227 535 137.773 504.66 65 445 c 1
 65 530 l 1
 113 577.547 208.68 615 315 615 c 0xfb80
185 362 m 0xfd
 160.147 362 140 341.853 140 317 c 0
 140 292.147 160.147 272 185 272 c 0xfd
 209.853 272 230 292.147 230 317 c 0xfb
 230 341.853 209.853 362 185 362 c 0xfd
490 160 m 0
 462 160 440 138 440 110 c 0
 440 82 462 60 490 60 c 0
 518 60 540 82 540 110 c 0xf940
 540 138 518 160 490 160 c 0
EndSplineSet
Validated: 1
EndChar

StartChar: uni0E0A
Encoding: 3594 3594 22
Width: 680
VWidth: 0
Flags: W
HStem: -12 80<304.588 443.803> 304 70<128.321 207.788> 464 65<167 207.437> 545 64<168.205 283.156> 560 100<552.451 640>
VStem: 45 78<379.808 458.571> 160 115<95.4065 220.246> 213 64<379.038 458.655> 312 85<356.845 480.442> 460 110<86.7188 391.803>
LayerCount: 5
Fore
SplineSet
640 660 m 1xedc0
 640 560 l 1
 531 560 485 460 485 460 c 1
 485 460 570 395 570 310 c 6
 570 105 l 5
 570 105 546 -12 370 -12 c 0
 222 -12 160 44 160 150 c 0xeec0
 160 246 312 316 312 445 c 0
 312 507 272 543 215 545 c 1
 185 545 180 540 167 529 c 1
 228 529 277 482 277 419 c 0
 277 356 228 304 166 304 c 0
 104 304 45 349 45 442 c 0
 45 525 110 609 215 609 c 0xf5c0
 314 609 382 553 395 457 c 1
 414 502 491 660 640 660 c 1xedc0
168 464 m 0
 144 464 123 444 123 419 c 0
 123 394 144 374 168 374 c 0
 193 374 213 394 213 419 c 0xe5c0
 213 444 193 464 168 464 c 0
396 441 m 1
 397 435 397 428 397 422 c 0
 397 305 275 232 275 150 c 0xe6c0
 275 113 311 68 373 68 c 0
 435 68 460 110 460 110 c 1
 460 200 l 1
 460 330 l 2
 460 389 414 428 396 441 c 1
EndSplineSet
Validated: 1
EndChar

StartChar: uni0E0B
Encoding: 3595 3595 21
Width: 690
VWidth: 0
Flags: W
HStem: -12 80<314.588 453.803> 287 65<128.321 207.788> 442 65<128.301 208.012> 560 100<562.557 650>
VStem: 45 78<356.639 482.837> 170 115<95.4065 217.569> 213 64<357.345 436.655> 327 80<364.948 488.439> 470 110<86.7188 391.85>
LayerCount: 5
Fore
SplineSet
650 660 m 5xfb80
 650 560 l 5
 541.238 560 495 460 495 460 c 5
 495 460 580 395.106 580 310 c 6
 580 105 l 5
 580 105 556 -12 380 -12 c 4
 232 -12 170 44 170 150 c 4xfd80
 170 236 327 335 327 445 c 4
 327 521 293 546 293 546 c 5
 230 500 l 5
 165 546 l 5
 165 546 136 528 128 500 c 5
 139 505 156 507 167 507 c 4
 228 507 277 460 277 397 c 4
 277 334 228 287 166 287 c 4
 104 287 45 327 45 420 c 4
 45 573 160 612 160 612 c 5
 230 560 l 5
 300 612 l 5
 300 612 389.275 571.933 404.719 456.75 c 5
 423.693 501.515 501.343 660 650 660 c 5xfb80
168 442 m 4
 144 442 123 422 123 397 c 4
 123 372 144 352 168 352 c 4
 193 352 213 372 213 397 c 4xfb80
 213 422 193 442 168 442 c 4
406.344 440.688 m 5
 406.762 434.643 407 428.426 407 422 c 4
 407 305 285 232 285 150 c 4xfd80
 285 113 321 68 383 68 c 4
 445 68 470 110 470 110 c 5
 470 200 l 5
 470 330 l 6
 470 388.969 423.557 428.183 406.344 440.688 c 5
EndSplineSet
Validated: 1
EndChar

StartChar: uni0E0C
Encoding: 3596 3596 47
Width: 990
VWidth: 0
Flags: W
HStem: -12 70<183.531 256.469 474.52 555.188> 138 70<220 255.376> 532 80<232.876 418.138>
VStem: 110 110<208 354.911> 110 70<62.6236 135.563> 260 70<61.5305 134.469> 390 75<69.496 156.317> 470 110<217.06 476.129> 565 75<70.1246 109> 760 110<87.0299 590>
LayerCount: 2
Fore
SplineSet
335 612 m 1xf640
 496 612 579 515 580 344 c 1
 580 224 l 1xf740
 645 193 734 137 775 87 c 1
 775 87 760 128 760 170 c 2
 760 590 l 1
 870 590 l 1
 870 12 l 1
 870 12 824 -6 770 -6 c 1
 743 35 686 77 640 109 c 1xe6c0
 638 42 583 -12 515 -12 c 0
 446 -12 390 44 390 113 c 0
 390 166 423 212 470 230 c 1
 470 344 l 2
 470 458 441 532 335 532 c 0
 254 532 207 498 170 450 c 1
 290 399 l 1
 290 399 220 366 220 319 c 2
 220 208 l 1
 281 208 330 159 330 98 c 0
 330 37 281 -12 220 -12 c 0xf740
 159 -12 110 37 110 98 c 2xee40
 110 299 l 2
 110 327 142 370 175 389 c 1
 60 438 l 1
 102 514 185 610 335 612 c 1xf640
515 163 m 0
 487 163 465 141 465 113 c 0
 465 85 487 63 515 63 c 0
 543 63 565 85 565 113 c 0xe6c0
 565 141 543 163 515 163 c 0
220 138 m 0xf640
 198 138 180 120 180 98 c 0xee40
 180 76 198 58 220 58 c 0
 242 58 260 76 260 98 c 0
 260 120 242 138 220 138 c 0xf640
EndSplineSet
EndChar

StartChar: uni0E0E
Encoding: 3598 3598 48
Width: 690
VWidth: 0
Flags: W
HStem: -302 60<167.437 242.211> -162 60<167.726 242.264> -12 70<103.531 176.469> 138 70<104.624 140> 532 80<232.876 418.138>
VStem: 30 70<61.5305 134.469> 105 60<-239.068 -164.932> 140 110<208 381.955> 180 70<62.6236 135.563> 275 95<-117.89 -60> 470 110<-231.948 476.129>
LayerCount: 5
Fore
SplineSet
335 612 m 1xfd60
 496 612 579 515 580 344 c 0
 580 173 580 -39 580 -230 c 1
 580 -230 553 -288 470 -302 c 1
 470 -302 373 -257 314 -222 c 1
 293 -265 259 -302 205 -302 c 0
 153 -302 105 -257 105 -202 c 0xfe60
 105 -147 149 -102 205 -102 c 0
 232 -102 243 -108 262 -119 c 1
 269 -104 275 -80 275 -60 c 1
 370 -60 l 1
 370 -88 356 -143 341 -161 c 1
 388 -188 470 -232 470 -232 c 1
 470 -31 470 129 470 344 c 0
 470 458 441 532 335 532 c 0
 254 532 207 498 170 450 c 1
 290 399 l 1
 290 399 250 366 250 319 c 2xfd60
 250 98 l 2xfce0
 250 37 201 -12 140 -12 c 0
 79 -12 30 37 30 98 c 0
 30 159 79 208 140 208 c 1
 140 299 l 2
 140 327 142 370 175 389 c 1
 60 438 l 1
 102 514 185 610 335 612 c 1xfd60
140 138 m 0xfd60
 118 138 100 120 100 98 c 0
 100 76 118 58 140 58 c 0xfd60
 162 58 180 76 180 98 c 0xfce0
 180 120 162 138 140 138 c 0xfd60
205 -162 m 0
 183 -162 165 -180 165 -202 c 0xfe60
 165 -224 183 -242 205 -242 c 0
 227 -242 245 -224 245 -202 c 0
 245 -180 227 -162 205 -162 c 0
EndSplineSet
Validated: 1
Substitution2: "Thai Descent Shorten" uni0E0E.short
EndChar

StartChar: uni0E0F
Encoding: 3599 3599 49
Width: 690
VWidth: 0
Flags: W
HStem: -302 60<92.4375 166.83> -162 60<92.9321 167.371> -12 70<103.531 176.469> 138 70<104.624 140> 532 80<232.876 418.138>
VStem: 30 70<61.5305 134.469> 30 60<-239.068 -164.932> 140 110<208 381.955> 180 70<62.6236 135.563> 220 90<-135.125 -60> 470 110<-212 476.129>
LayerCount: 5
Fore
SplineSet
335 612 m 1xfd20
 496 612 579 515 580 344 c 1
 580 153 580 -39 580 -230 c 1
 580 -230 575 -288 470 -302 c 1
 372 -207 l 1
 279 -302 l 1
 225 -244 l 1
 207 -273 182 -302 130 -302 c 0
 78 -302 30 -257 30 -202 c 0
 30 -147 75 -102 130 -102 c 0
 162 -102 184 -116 207 -137 c 1
 215 -127 220 -98 220 -60 c 1
 310 -60 l 1xfa60
 310 -111 276 -172 259 -190 c 1
 280 -212 l 1
 372 -110 l 1
 470 -212 l 1
 470 -212 470 159 470 344 c 0
 470 458 441 532 335 532 c 0
 254 532 207 498 170 450 c 1
 290 399 l 1
 290 399 250 366 250 319 c 2xf920
 250 98 l 2xf8a0
 250 37 201 -12 140 -12 c 0
 79 -12 30 37 30 98 c 0
 30 159 79 208 140 208 c 1
 140 299 l 2
 140 327 142 370 175 389 c 1
 60 438 l 1
 102 514 185 610 335 612 c 1xfd20
140 138 m 0xf920
 118 138 100 120 100 98 c 0
 100 76 118 58 140 58 c 0xfd20
 162 58 180 76 180 98 c 0xf8a0
 180 120 162 138 140 138 c 0xf920
130 -162 m 0
 108 -162 90 -180 90 -202 c 0xfa20
 90 -224 108 -242 130 -242 c 0
 152 -242 170 -224 170 -202 c 0
 170 -180 152 -162 130 -162 c 0
EndSplineSet
Validated: 1
Substitution2: "Thai Descent Shorten" uni0E0F.short
EndChar

StartChar: uni0E10
Encoding: 176 3600 70
Width: 580
VWidth: 0
Flags: W
HStem: -340 55<116.5 183.696> -215 55<116.5 183.729 400.716 420> -110 50<400.558 449.442> 140 60<147.932 221.908> 280 60<147.932 221.359> 515 85<460.526 520> 537 75<194.611 367.823>
VStem: 60 55<-283.5 -216.5> 60 100<456.486 500.022> 85 60<202.932 277.068> 210 70<-175.154 -120> 340 120<34.9796 143.418> 350 50<-159.937 -110.558> 360 100<200 351.443> 420 80<-275.929 -203.382> 450 50<-159.992 -111.108>
LayerCount: 2
Fore
SplineSet
425 -60 m 0xf92a
 466 -60 500 -94 500 -135 c 2xf829
 500 -260 l 2
 500 -333 400 -340 400 -340 c 1xf82a
 340 -270 l 1xf830
 310 -334 l 1
 260 -334 l 1
 226 -295 l 1
 213 -317 195 -340 150 -340 c 0
 100 -340 60 -300 60 -250 c 0
 60 -200 100 -160 150 -160 c 0
 168 -160 185 -167 199 -176 c 1
 205 -158 210 -137 210 -120 c 1
 280 -120 l 1
 280 -166 261 -201 245 -227 c 1
 275 -265 l 1
 310 -195 l 1
 350 -195 l 1
 420 -277 l 1
 420 -210 l 1
 381 -207 350 -175 350 -135 c 0
 350 -94 384 -60 425 -60 c 0xf92a
425 -110 m 0
 411 -110 400 -121 400 -135 c 0
 400 -149 411 -160 425 -160 c 0
 439 -160 450 -149 450 -135 c 0
 450 -121 439 -110 425 -110 c 0
150 -215 m 0
 131 -215 115 -231 115 -250 c 0xf920
 115 -269 131 -285 150 -285 c 0
 169 -285 185 -269 185 -250 c 0
 185 -231 169 -215 150 -215 c 0
EndSplineSet
Refer: 18 63232 N 1 0 0 1 0 0 2
Validated: 1
Substitution2: "Descend Subsitute" uni0E10.descless
EndChar

StartChar: uni0E11
Encoding: 177 3601 93
Width: 710
VWidth: 0
Flags: W
HStem: 0 21G<220 330 530 630> 306 50<114.317 186> 436 50<113.318 186> 541 65<117.676 211.262>
VStem: 30 80<359.189 495.132> 190 50<360 432> 220 110<0 241.238> 230 45<466 492.95> 530 100<0 498.624>
LayerCount: 2
Fore
SplineSet
160 606 m 0xfc80
 211 606 233 583 251 550 c 1
 270 603 l 1
 310 603 l 1
 358 589 392 535 400 461 c 1
 426 496 476 554 520 596 c 1
 602 596 630 549 630 460 c 2
 630 0 l 1
 530 0 l 1
 530 500 l 1
 463 425 330 266 330 130 c 2
 330 0 l 1
 220 0 l 1
 220 0 220 113 220 170 c 0xfa80
 220 300 320 376 320 470 c 0
 320 520 308 535 299 543 c 1
 275 466 l 1
 230 466 l 1xf980
 230 503 198 541 160 541 c 0
 128 541 106 510 101 472 c 1
 115 481 132 486 150 486 c 0
 200 486 240 446 240 396 c 0
 240 346 200 306 150 306 c 0
 79 306 30 365 30 456 c 0
 30 533 89 606 160 606 c 0xfc80
150 436 m 0
 128 436 110 418 110 396 c 0
 110 374 128 356 150 356 c 0
 172 356 190 374 190 396 c 0xfc80
 190 418 172 436 150 436 c 0
EndSplineSet
Validated: 1
EndChar

StartChar: uni0E12
Encoding: 3602 3602 52
Width: 1030
VWidth: 0
Flags: W
HStem: -12 75<511.496 598.192> 0 21G<130 259.5> 365 65<304.488 385.512>
VStem: 80 90<235.427 476.379> 130 110<0 54.938> 235 65<279.303 360.512> 390 65<280.621 360.512> 430 75<69.496 156.317> 510 110<217.06 493.66> 605 75<70.1246 109> 800 110<87.0299 590>
LayerCount: 2
Fore
SplineSet
245 612 m 5x7020
 345 542 l 5
 455 612 l 5
 593 575 619 461 620 340 c 5
 620 224 l 5x72a0
 685 193 774 137 815 87 c 1
 815 87 800 128 800 170 c 2
 800 590 l 1
 910 590 l 1
 910 12 l 1
 910 12 864 -6 810 -6 c 1
 783 35 726 77 680 109 c 5x6060
 678 42 623 -12 555 -12 c 4
 486 -12 430 44 430 113 c 4
 430 166 463 212 510 230 c 5
 510 380 l 6
 510 452 504 492 450 524 c 5
 345 462 l 5
 245 524 l 5
 184 485 170 431 170 380 c 4
 170 257 212 219 229 129 c 5
 254 159 282 192 317 214 c 5
 266 222 235 275 235 320 c 4xb5a0
 235 381 284 430 345 430 c 4
 406 430 455 381 455 320 c 4
 455 174 279 145 240 0 c 5
 130 0 l 5x6a20
 130 188 80 206 80 340 c 5
 81 461 112 563 245 612 c 5x7020
345 365 m 4
 320 365 300 345 300 320 c 4x2620
 300 295 320 275 345 275 c 4
 370 275 390 295 390 320 c 4
 390 345 370 365 345 365 c 4
555 163 m 4
 527 163 505 141 505 113 c 4
 505 85 527 63 555 63 c 4
 583 63 605 85 605 113 c 4xa160
 605 141 583 163 555 163 c 4
EndSplineSet
EndChar

StartChar: uni0E13
Encoding: 3603 3603 53
Width: 990
VWidth: 0
Flags: W
HStem: -12 70<183.531 256.469 754.52 835.48> 138 70<220 255.376> 532 80<232.876 418.138>
VStem: 110 110<208 354.911> 110 70<62.6236 135.563> 260 70<61.5305 134.469> 470 110<133 476.129> 670 75<69.496 126.795> 770 110<253.56 590> 845 75<69.496 157.064>
LayerCount: 5
Fore
SplineSet
335 612 m 1xf7
 496 612 579 515 580 344 c 1
 580 206 l 1
 580 133 l 1
 580 133 663 223 770 264 c 1
 770 590 l 1
 880 590 l 1
 880 230 l 1xf780
 871 228 863 225 855 223 c 1
 894 202 920 160 920 113 c 0
 920 44 864 -12 795 -12 c 0
 726 -12 670 44 670 113 c 0
 670 118 670 122 671 127 c 1
 620 89 593 45 550 -3 c 1
 480 -3 471 38 470 182 c 1
 470 344 l 2
 470 458 441 532 335 532 c 0
 254 532 207 498 170 450 c 1
 290 399 l 1
 290 399 220 366 220 319 c 2
 220 208 l 1
 281 208 330 159 330 98 c 0
 330 37 281 -12 220 -12 c 0xf740
 159 -12 110 37 110 98 c 2xef
 110 299 l 2
 110 327 142 370 175 389 c 1
 60 438 l 1
 102 514 185 610 335 612 c 1xf7
795 163 m 0
 767 163 745 141 745 113 c 0
 745 85 767 63 795 63 c 0
 823 63 845 85 845 113 c 0xe740
 845 141 823 163 795 163 c 0
220 138 m 0xf7
 198 138 180 120 180 98 c 0xef
 180 76 198 58 220 58 c 0
 242 58 260 76 260 98 c 0
 260 120 242 138 220 138 c 0xf7
EndSplineSet
Validated: 1
EndChar

StartChar: uni0E14
Encoding: 3604 3604 54
Width: 620
VWidth: 0
Flags: W
HStem: 0 21G<80 180 450 550> 370 60<259.269 340.731> 527 85<204.958 387.802>
VStem: 40 90<184.932 450.746> 80 100<0 54.8267> 195 60<285.096 365.731> 345 60<285.341 365.731> 450 100<0 465.786>
LayerCount: 5
Back
SplineSet
360 612 m 4xf3
 532 612 635 504 635 334 c 6
 635 0 l 5
 525 0 l 5
 525 334 l 6
 525 466 472 532 360 532 c 4
 229 532 185 422 185 344 c 4
 185 263 223 203 241 125 c 5
 265 156 296 191 332 214 c 5
 281 222 250 275 250 320 c 4xf7
 250 381 299 430 360 430 c 4
 421 430 470 381 470 320 c 4
 470 174 294 145 255 0 c 5
 145 0 l 5xeb
 145 188 95 210 95 337 c 4
 96 499 188 612 360 612 c 4xf3
360 365 m 4
 335 365 315 345 315 320 c 4
 315 295 335 275 360 275 c 4
 385 275 405 295 405 320 c 4
 405 345 385 365 360 365 c 4
EndSplineSet
Fore
SplineSet
80 0 m 5xef
 80 184 40 229 40 350 c 4
 40 516 143 612 300 612 c 4
 457 612 550 502 550 380 c 6
 550 0 l 5
 550 0 525 0 450 0 c 5
 450 380 l 6
 450 476 379 527 300 527 c 4
 221 527 130 481 130 350 c 4xf7
 130 264 155 201 171 121 c 5
 206 153 255 185 283 221 c 5
 233 229 195 273 195 325 c 4
 195 383 242 430 300 430 c 4
 358 430 405 383 405 325 c 4
 405 183 180 88 180 0 c 5
 106 0 80 0 80 0 c 5xef
300 370 m 4
 275 370 255 350 255 325 c 4
 255 300 275 280 300 280 c 4
 325 280 345 300 345 325 c 4
 345 350 325 370 300 370 c 4
EndSplineSet
EndChar

StartChar: uni0E15
Encoding: 3605 3605 55
Width: 730
VWidth: 0
Flags: WO
HStem: 0 21G<145 274.5 525 635> 365 65<319.488 400.512>
VStem: 95 90<235.427 476.379> 145 110<0 54.938> 250 65<279.303 360.512> 405 65<280.621 360.512> 525 110<0 493.66>
LayerCount: 2
Fore
SplineSet
260 612 m 5xe6
 360 542 l 5
 470 612 l 5
 608 575 634 461 635 340 c 5
 635 0 l 5
 525 0 l 5
 525 380 l 6
 525 452 519 492 465 524 c 5
 360 462 l 5
 260 524 l 5
 199 485 185 431 185 380 c 4
 185 257 227 219 244 129 c 5
 269 159 297 192 332 214 c 5
 281 222 250 275 250 320 c 4xee
 250 381 299 430 360 430 c 4
 421 430 470 381 470 320 c 4
 470 174 294 145 255 0 c 5
 145 0 l 5xd6
 145 188 95 206 95 340 c 5
 96 461 127 563 260 612 c 5xe6
360 365 m 4
 335 365 315 345 315 320 c 4
 315 295 335 275 360 275 c 4
 385 275 405 295 405 320 c 4
 405 345 385 365 360 365 c 4
EndSplineSet
EndChar

StartChar: uni0E16
Encoding: 3606 3606 24
Width: 690
VWidth: 0
Flags: W
HStem: -12 70<183.531 256.469> 0 21G<470 580> 138 70<220 255.376> 532 80<232.876 418.138>
VStem: 110 110<208 354.911> 110 70<62.6236 135.563> 260 70<61.5305 134.469> 470 110<0 476.129>
LayerCount: 5
Fore
SplineSet
335 612 m 5xbb
 496 612 579 515 580 344 c 5
 580 0 l 5
 470 0 l 5x7b
 470 344 l 6
 470 458 441 532 335 532 c 4
 254 532 207 498 170 450 c 5
 290 399 l 5
 290 399 220 366 220 319 c 6
 220 208 l 5
 281 208 330 159 330 98 c 4
 330 37 281 -12 220 -12 c 4xbb
 159 -12 110 37 110 98 c 6xb7
 110 299 l 6
 110 327 142 370 175 389 c 5
 60 438 l 5
 102 514 185 610 335 612 c 5xbb
220 138 m 4
 198 138 180 120 180 98 c 4xb7
 180 76 198 58 220 58 c 4xbb
 242 58 260 76 260 98 c 4
 260 120 242 138 220 138 c 4
EndSplineSet
Validated: 1
EndChar

StartChar: uni0E17
Encoding: 3607 3607 56
Width: 730
VWidth: 0
Flags: W
HStem: 0 21G<190 300 510 620> 372 75<141.619 189.111> 537 75<140.515 219.485>
VStem: 60 75<452.516 531.484> 190 110<0 250.346> 225 75<451.412 530.381> 510 110<0 522.205>
LayerCount: 2
Fore
SplineSet
180 612 m 4xfa
 246 612 300 558 300 492 c 6
 300 380 l 5xf6
 314 405 399 600 510 600 c 4
 566 600 620 548 620 460 c 6
 620 0 l 5
 510 0 l 5
 510 471 l 6
 510 510 495 525 495 525 c 5
 441 495 300 270 300 120 c 6
 300 0 l 5
 190 0 l 5
 190 372 l 5
 187 372 183 372 180 372 c 4
 114 372 60 426 60 492 c 4
 60 558 114 612 180 612 c 4xfa
180 537 m 4
 155 537 135 517 135 492 c 4
 135 467 155 447 180 447 c 4
 205 447 225 467 225 492 c 4
 225 517 205 537 180 537 c 4
EndSplineSet
EndChar

StartChar: uni0E18
Encoding: 3608 3608 57
Width: 630
VWidth: 0
Flags: W
HStem: -12 90<220.504 408.159> 520 86<498.007 555> 532 80<219.904 406.805>
VStem: 90 110<98.9678 300> 420 110<96.2434 315.398>
LayerCount: 5
Fore
SplineSet
305 612 m 0xb8
 393 612 436 581 465 550 c 1
 485 577 524 606 555 606 c 1
 555 520 l 1xd8
 524 520 484 487 465 460 c 1
 409 516 359 532 305 532 c 0
 231 532 175 481 175 449 c 1
 350 429 530 386 530 284 c 0
 530 219 530 153 530 80 c 1
 530 80 483 -12 310 -12 c 0
 127 -12 90 80 90 159 c 2
 90 300 l 1
 200 300 l 1
 200 154 l 6
 201 99 244 78 310 78 c 4
 376 78 420 110 420 110 c 5
 420 110 420 113 420 170 c 4
 420 205 420 246 420 286 c 0
 420 351 140 384 55 394 c 1
 55 528 185 612 305 612 c 0xb8
EndSplineSet
Validated: 1
EndChar

StartChar: uni0E19
Encoding: 3609 3609 30
Width: 620
VWidth: 0
Flags: W
HStem: -6 75<421.496 508.504> 366 75<100.515 159.623> 531 75<100.515 179.485>
VStem: 20 75<446.516 525.484> 160 100<130 368> 185 75<445.412 524.381> 340 75<76.0351 119> 440 100<242.725 590> 515 75<75.496 163.064>
LayerCount: 5
Fore
SplineSet
140 606 m 4xfa80
 206 606 260 552 260 486 c 6xf6
 260 130 l 1
 260 130 336 220 440 251 c 1
 440 590 l 1
 540 590 l 1
 540 241 l 1xfb
 525 229 l 1
 564 208 590 166 590 119 c 0
 590 50 534 -6 465 -6 c 0
 396 -6 340 50 340 119 c 1
 283 74 264 39 230 -6 c 1
 164 -6 160 50 160 90 c 2
 160 368 l 5
 153 367 147 366 140 366 c 4
 74 366 20 420 20 486 c 4
 20 552 74 606 140 606 c 4xfa80
140 531 m 4
 115 531 95 511 95 486 c 4
 95 461 115 441 140 441 c 4
 165 441 185 461 185 486 c 4
 185 511 165 531 140 531 c 4
465 169 m 0
 437 169 415 147 415 119 c 0
 415 91 437 69 465 69 c 0
 493 69 515 91 515 119 c 0xf280
 515 147 493 169 465 169 c 0
EndSplineSet
EndChar

StartChar: uni0E1A
Encoding: 3610 3610 4
Width: 770
VWidth: 0
Flags: W
HStem: -12 80<328.88 527.691> 352 80<127.092 189.649> 532 80<127.092 212.908>
VStem: 40 80<439.092 524.908> 190 110<97.8907 354> 220 80<437.957 523.773> 550 110<91.9445 590>
LayerCount: 2
Fore
SplineSet
170 612 m 4xfa
 242 612 300 554 300 482 c 6xf6
 300 175 l 6
 300 95 340 68 425 68 c 4
 510 68 550 110 550 110 c 5
 550 110 550 127 550 180 c 6
 550 590 l 5
 660 590 l 5
 660 80 l 5
 660 80 608 -12 425 -12 c 4
 242 -12 190 51 190 175 c 6
 190 354 l 5
 183 353 177 352 170 352 c 4
 98 352 40 410 40 482 c 4
 40 554 98 612 170 612 c 4xfa
170 532 m 4
 142 532 120 510 120 482 c 4
 120 454 142 432 170 432 c 4
 198 432 220 454 220 482 c 4
 220 510 198 532 170 532 c 4
EndSplineSet
Validated: 1
EndChar

StartChar: uni0E1B
Encoding: 3611 3611 11
Width: 680
VWidth: 0
Flags: HW
HStem: -12 80<294.984 476.816> 366 75<100.515 159.623> 531 75<100.515 179.485>
VStem: 20 75<446.516 525.484> 160 100<102.75 368> 185 75<445.412 524.381> 500 100<91.9445 860>
LayerCount: 5
Fore
SplineSet
140 606 m 0xfa
 206 606 260 552 260 486 c 2xf6
 260 195 l 2
 260 115 301 78 380 78 c 0
 459 78 500 130 500 130 c 1
 500 860 l 5
 600 860 l 5
 600 90 l 1
 600 90 537 -12 380 -12 c 0
 223 -12 160 73 160 195 c 2
 160 368 l 1
 153 367 147 366 140 366 c 0
 74 366 20 420 20 486 c 0
 20 552 74 606 140 606 c 0xfa
140 531 m 0
 115 531 95 511 95 486 c 0
 95 461 115 441 140 441 c 0
 165 441 185 461 185 486 c 0
 185 511 165 531 140 531 c 0
EndSplineSet
EndChar

StartChar: uni0E1C
Encoding: 3612 3612 58
Width: 750
VWidth: 0
Flags: W
HStem: 372 75<190.889 238.381> 537 75<160.515 239.485>
VStem: 80 110<84.3185 372> 80 75<451.412 530.381> 245 75<452.516 531.484> 530 110<80 590>
LayerCount: 2
Back
SplineSet
190 80 m 5xec
 325 360 l 5
 395 360 l 5
 530 80 l 5
 530 590 l 5
 640 590 l 5
 640 70 l 5
 640 70 592 -12 495 -12 c 5
 360 260 l 5
 225 -12 l 5
 92 -12 80 43 80 220 c 4xec
 80 307 80 395 80 482 c 4xdc
 80 554 138 612 210 612 c 4
 282 612 340 554 340 482 c 4
 340 410 282 352 210 352 c 4
 203 352 197 353 190 354 c 5
 190 80 l 5xec
210 532 m 4
 182 532 160 510 160 482 c 4xdc
 160 454 182 432 210 432 c 4
 238 432 260 454 260 482 c 4
 260 510 238 532 210 532 c 4
EndSplineSet
Fore
SplineSet
200 612 m 0xdc
 266 612 320 558 320 492 c 0
 320 426 266 372 200 372 c 0
 197 372 193 372 190 372 c 1
 190 80 l 1
 325 360 l 1
 395 360 l 1
 530 80 l 1
 530 590 l 1
 640 590 l 1
 640 70 l 1
 640 70 592 -6 495 -6 c 1
 360 260 l 1
 225 -6 l 1
 92 -6 80 43 80 220 c 2xec
 80 492 l 2
 80 558 134 612 200 612 c 0xdc
200 537 m 0
 175 537 155 517 155 492 c 0xdc
 155 467 175 447 200 447 c 0
 225 447 245 467 245 492 c 0
 245 517 225 537 200 537 c 0
EndSplineSet
EndChar

StartChar: uni0E1D
Encoding: 3613 3613 41
Width: 750
VWidth: 0
Flags: W
HStem: 372 75<190.889 238.381> 537 75<160.515 239.485>
VStem: 80 110<84.3185 372> 80 75<451.412 530.381> 245 75<452.516 531.484> 530 110<80 860>
LayerCount: 5
Fore
SplineSet
200 612 m 0xdc
 266 612 320 558 320 492 c 0
 320 426 266 372 200 372 c 0
 197 372 193 372 190 372 c 1
 190 80 l 1
 325 360 l 1
 395 360 l 1
 530 80 l 1
 530 860 l 1
 640 860 l 1
 640 70 l 1
 640 70 592 -6 495 -6 c 1
 360 260 l 1
 225 -6 l 1
 92 -6 80 43 80 220 c 2xec
 80 492 l 2
 80 558 134 612 200 612 c 0xdc
200 537 m 0
 175 537 155 517 155 492 c 0xdc
 155 467 175 447 200 447 c 0
 225 447 245 467 245 492 c 0
 245 517 225 537 200 537 c 0
EndSplineSet
Validated: 1
EndChar

StartChar: uni0E1E
Encoding: 190 3614 36
Width: 670
VWidth: 0
Flags: W
HStem: 386 65<99.5633 149.111> 541 65<99.4878 180.512>
VStem: 30 65<455.488 536.512> 150 100<151 386> 185 65<455.412 536.437> 490 100<150 590>
LayerCount: 2
Back
SplineSet
130 606 m 4xf4
 191 606 240 557 240 496 c 6xec
 240 130 l 5
 370 540 l 5
 500 130 l 5
 500 590 l 5
 600 590 l 5
 600 120 l 6
 600 51 552 -6 470 -6 c 5
 370 300 l 5
 270 -6 l 5
 188 -6 140 51 140 120 c 6
 140 386 l 5
 130 386 l 6
 69 386 20 435 20 496 c 4
 20 557 69 606 130 606 c 4xf4
130 541 m 4
 105 541 85 521 85 496 c 4
 85 471 105 451 130 451 c 4
 155 451 175 471 175 496 c 4
 175 521 155 541 130 541 c 4
EndSplineSet
Fore
SplineSet
140 606 m 0xf4
 201 606 250 557 250 496 c 2xec
 250 151 l 1
 345 450 l 1
 395 450 l 1
 490 150 l 1
 490 590 l 1
 590 590 l 1
 590 100 l 2
 590 15 542 -6 480 -6 c 1
 370 330 l 1
 260 -6 l 1
 198 -6 150 17 150 100 c 2
 150 386 l 1
 140 386 l 2
 79 386 30 435 30 496 c 0
 30 557 79 606 140 606 c 0xf4
140 541 m 0
 115 541 95 521 95 496 c 0
 95 471 115 451 140 451 c 0
 165 451 185 471 185 496 c 0
 185 521 165 541 140 541 c 0
EndSplineSet
Validated: 1
EndChar

StartChar: uni0E1F
Encoding: 3615 3615 42
Width: 800
VWidth: 0
Flags: W
HStem: 372 75<121.619 169.111> 537 75<120.515 199.485>
VStem: 40 75<452.516 531.484> 170 110<78.9861 372> 205 75<451.412 530.381> 580 110<75 860>
LayerCount: 5
Fore
SplineSet
160 612 m 0xf4
 226 612 280 558 280 492 c 2
 280 75 l 1xec
 395 540 l 1
 465 540 l 1
 580 75 l 1
 580 860 l 1
 690 860 l 1
 690 70 l 1
 690 70 628 -6 525 -6 c 1
 430 380 l 1
 335 -6 l 1
 182 -6 170 31 170 220 c 2
 170 372 l 1
 167 372 163 372 160 372 c 0
 94 372 40 426 40 492 c 0
 40 558 94 612 160 612 c 0xf4
160 537 m 0
 135 537 115 517 115 492 c 0
 115 467 135 447 160 447 c 0
 185 447 205 467 205 492 c 0
 205 517 185 537 160 537 c 0
EndSplineSet
Validated: 1
EndChar

StartChar: uni0E21
Encoding: 3617 3617 26
Width: 600
VWidth: 0
Flags: WO
HStem: -6 75<121.496 208.504> 169 75<121.496 179.295> 366 75<120.515 179.623> 531 75<120.515 199.485>
VStem: 40 75<75.496 162.504 446.516 525.484> 180 100<243 368> 205 75<445.412 524.381> 215 75<75.496 143.314> 430 100<120 590>
LayerCount: 5
Fore
SplineSet
160 606 m 4xfc80
 226 606 280 552 280 486 c 6
 280 228 l 5xfa80
 348 197 378 173 430 120 c 5
 430 590 l 5
 530 590 l 5
 530 36 l 5
 530 36 490 -6 450 -6 c 5
 395 63 340 117 287 144 c 5
 289 136 290 128 290 119 c 4xf980
 290 50 234 -6 165 -6 c 4
 96 -6 40 50 40 119 c 4
 40 188 96 244 165 244 c 4
 170 244 175 244 180 243 c 5
 180 368 l 5
 173 367 167 366 160 366 c 4
 94 366 40 420 40 486 c 4
 40 552 94 606 160 606 c 4xfc80
160 531 m 4
 135 531 115 511 115 486 c 4
 115 461 135 441 160 441 c 4
 185 441 205 461 205 486 c 4
 205 511 185 531 160 531 c 4
165 169 m 4
 137 169 115 147 115 119 c 4
 115 91 137 69 165 69 c 4
 193 69 215 91 215 119 c 4xf980
 215 147 193 169 165 169 c 4
EndSplineSet
EndChar

StartChar: uni0E22
Encoding: 3618 3618 61
Width: 580
VWidth: 0
Flags: W
HStem: -12 80<177.776 373.334> 267 70<176.743 270> 366 70<170 212.376> 536 70<125.931 213.965>
VStem: 40 100<105.098 231.069> 40 80<443.165 529.882> 220 70<442.158 529.965> 400 100<93.8818 590>
LayerCount: 5
Back
SplineSet
170 600 m 4xee
 236 600 290 546 290 480 c 4
 290 421 247 372 191 362 c 5
 215 353 226 350 320 350 c 5
 320 270 l 5
 202 270 150 214 150 165 c 4
 150 112 196 78 275 78 c 4
 354 78 400 130 400 130 c 5
 400 590 l 5
 510 590 l 5
 510 90 l 5
 510 90 432 -12 275 -12 c 4
 118 -12 40 70 40 160 c 4xf6
 40 230 86 288 140 320 c 5
 90 340 40 392 40 465 c 4
 40 540 92 600 170 600 c 4xee
170 530 m 4
 142 530 120 508 120 480 c 4xee
 120 452 142 430 170 430 c 4
 198 430 220 452 220 480 c 4
 220 508 198 530 170 530 c 4
EndSplineSet
Fore
SplineSet
170 606 m 0xf7
 236 606 290 552 290 486 c 0
 290 427 254.296 366 170 366 c 1
 183.181 350.614 216.265 337 270 337 c 1
 270 267 l 1
 182 267 140 220 140 171 c 0
 140 118 175.024 68 270 68 c 0
 349 68 400 110 400 110 c 1
 400 590 l 1
 500 590 l 1
 500 60 l 1
 500 60 427 -12 270 -12 c 0
 124.061 -12 40 46.4219 40 161 c 0xfb
 40 216.253 66.2529 288 135 320 c 1
 85 340 40 398 40 471 c 0
 40 546 92 606 170 606 c 0xf7
170 536 m 0
 142 536 120 514 120 486 c 0xf7
 120 458 142 436 170 436 c 0
 198 436 220 458 220 486 c 0
 220 514 198 536 170 536 c 0
EndSplineSet
EndChar

StartChar: uni0E23
Encoding: 3619 3619 32
Width: 500
VWidth: 0
Flags: W
HStem: -12 80<238.427 311.573> 148 80<238.427 294.771> 526 80<400.526 460> 542 70<143.802 314.662>
VStem: 0 100<446.543 499.234> 155 80<71.4275 144.573> 295 100<226 357.64> 315 80<72.4175 145.563>
LayerCount: 5
Fore
SplineSet
220 612 m 0xde
 296 612 341 581 370 550 c 1
 390 577 429 606 460 606 c 1
 460 526 l 1xee
 429 526 389 497 370 470 c 1
 314 526 274 542 220 542 c 0
 146 542 100 481 100 449 c 1
 275 431 395 426 395 324 c 2xde
 395 108 l 2xdd
 395 42 341 -12 275 -12 c 0
 209 -12 155 42 155 108 c 0
 155 174 209 228 275 228 c 0
 282 228 288 227 295 226 c 1
 295 326 l 2
 295 391 85 386 0 394 c 1
 0 528 100 612 220 612 c 0xde
275 148 m 0
 253 148 235 130 235 108 c 0
 235 86 253 68 275 68 c 0
 297 68 315 86 315 108 c 0xcd
 315 130 297 148 275 148 c 0
EndSplineSet
EndChar

StartChar: uni0E24
Encoding: 3620 3620 62
Width: 690
VWidth: 0
Flags: W
HStem: -12 70<183.531 256.469> 138 70<220 255.376> 532 80<232.876 418.138>
VStem: 110 110<208 354.911> 110 70<62.6236 135.563> 260 70<61.5305 134.469> 470 110<-259 476.129>
LayerCount: 2
Fore
SplineSet
335 612 m 1xf6
 496 612 579 515 580 344 c 1
 580 -259 l 1
 470 -259 l 1
 470 344 l 2
 470 458 441 532 335 532 c 0
 254 532 207 498 170 450 c 1
 290 399 l 1
 290 399 220 366 220 319 c 2
 220 208 l 1
 281 208 330 159 330 98 c 0
 330 37 281 -12 220 -12 c 0xf6
 159 -12 110 37 110 98 c 2xee
 110 299 l 2
 110 327 142 370 175 389 c 1
 60 438 l 1
 102 514 185 610 335 612 c 1xf6
220 138 m 0
 198 138 180 120 180 98 c 0xee
 180 76 198 58 220 58 c 0
 242 58 260 76 260 98 c 0
 260 120 242 138 220 138 c 0
EndSplineSet
Validated: 1
EndChar

StartChar: uni0E25
Encoding: 3621 3621 63
Width: 650
VWidth: 0
Flags: W
HStem: -12 70<143.531 216.469> 0 21G<430 464.5> 138 70<180 215.376> 310 80<203.47 339.868> 532 80<164.328 377.687>
VStem: 70 110<208 288.304> 70 70<62.6236 135.563> 220 70<61.5305 134.469> 430 110<20.25 211.687> 440 100<280 473.423>
LayerCount: 2
Fore
SplineSet
280 612 m 4xbb40
 423 612 540 566 540 364 c 6xbb40
 540 24 l 5
 540 24 499 0 430 0 c 5x7980
 430 135 l 6
 430 200 353 310 270 310 c 4
 200 310 180 257 180 240 c 6
 180 208 l 5
 241 208 290 159 290 98 c 4
 290 37 241 -12 180 -12 c 4xbd80
 119 -12 70 37 70 98 c 6xbb
 70 210 l 6xbd
 70 284 132 390 270 390 c 4
 358 390 429 311 440 280 c 5
 440 402 l 6
 440 459 393 532 280 532 c 4
 197 532 135 502 70 435 c 5
 70 525 l 5
 117 570 185 612 280 612 c 4xbb40
180 138 m 4xbd
 158 138 140 120 140 98 c 4xbb
 140 76 158 58 180 58 c 4
 202 58 220 76 220 98 c 4
 220 120 202 138 180 138 c 4xbd
EndSplineSet
EndChar

StartChar: uni0E26
Encoding: 3622 3622 64
Width: 690
VWidth: 0
Flags: W
HStem: -12 70<103.531 176.469> 138 70<104.624 140> 532 80<232.876 418.138>
VStem: 30 70<61.5305 134.469> 140 110<208 381.955> 180 70<62.6236 135.563> 470 110<-260 476.129>
LayerCount: 5
Fore
SplineSet
335 612 m 1xfa
 496 612 579 515 580 344 c 1
 580 -260 l 1
 470 -260 l 1
 470 344 l 2
 470 458 441 532 335 532 c 0
 254 532 207 498 170 450 c 1
 290 399 l 1
 290 399 250 366 250 319 c 2xfa
 250 98 l 2xf6
 250 37 201 -12 140 -12 c 0
 79 -12 30 37 30 98 c 0
 30 159 79 208 140 208 c 1
 140 299 l 2
 140 327 142 370 175 389 c 1
 60 438 l 1
 102 514 185 610 335 612 c 1xfa
140 138 m 0
 118 138 100 120 100 98 c 0
 100 76 118 58 140 58 c 0xfa
 162 58 180 76 180 98 c 0xf6
 180 120 162 138 140 138 c 0
EndSplineSet
Validated: 1
EndChar

StartChar: uni0E27
Encoding: 3623 3623 37
Width: 530
VWidth: 0
Flags: W
HStem: -12 80<303.427 376.573> 148 80<303.427 359.771> 535 80<98.7884 290.759>
VStem: 220 80<71.4275 144.573> 360 100<226 467.794> 380 80<72.4175 145.563>
LayerCount: 5
Fore
SplineSet
210 615 m 0xf8
 361 615 460 530 460 380 c 2xf8
 460 108 l 2xf4
 460 42 406 -12 340 -12 c 0
 274 -12 220 42 220 108 c 0
 220 174 274 228 340 228 c 0
 347 228 353 227 360 226 c 1
 360 380 l 1
 358 497 263 535 210 535 c 0
 140 535 73 504 10 453 c 1
 10 543 l 1
 60 578 116 615 210 615 c 0xf8
340 148 m 0
 318 148 300 130 300 108 c 0
 300 86 318 68 340 68 c 0
 362 68 380 86 380 108 c 0xf4
 380 130 362 148 340 148 c 0
EndSplineSet
EndChar

StartChar: uni0E28
Encoding: 3624 3624 65
Width: 730
VWidth: 0
Flags: W
HStem: 0 21G<130 243.913 510 620> 210 65<304.228 385.512> 365 65<305.107 385.456> 532 80<250.194 442.743> 560 100<601.099 690>
VStem: 80 90<216.979 446.849> 130 110<0 182.863> 390 65<279.488 360.512> 510 110<0 458.475>
LayerCount: 5
Fore
SplineSet
690 660 m 1xed80
 690 560 l 1xed80
 635 560 595 534 570 509 c 1
 603 463 620 404 620 334 c 2
 620 0 l 1
 510 0 l 1
 510 334 l 2
 510 466 457 532 345 532 c 0
 214 532 170 422 170 344 c 0xf580
 170 297 179 257 191 216 c 1
 217 325 253 430 345 430 c 0
 412 430 455 381 455 320 c 0
 455 259 406 210 345 210 c 0
 313 210 285 230 285 230 c 1
 249 175 240 0 240 0 c 1
 130 0 l 1xf380
 130 188 80 210 80 337 c 0
 81 499 173 612 345 612 c 0xf580
 412 612 468 596 512 566 c 1
 553 611 618 660 690 660 c 1xed80
345 365 m 0
 320 365 300 345 300 320 c 0
 300 295 320 275 345 275 c 0
 370 275 390 295 390 320 c 0
 390 345 370 365 345 365 c 0
EndSplineSet
Validated: 1
EndChar

StartChar: uni0E29
Encoding: 3625 3625 66
Width: 770
VWidth: 0
Flags: W
HStem: -12 80<312.304 514.538> 229 68<473.018 540> 352 80<107.092 169.649> 394 45<387.742 452.258> 532 80<107.092 192.908>
VStem: 20 80<439.092 524.908> 170 110<98.2563 354> 200 80<437.957 523.773> 340 45<326.899 390.797> 455 45<326.808 391.168> 540 110<92.917 229 336 590>
LayerCount: 5
Fore
SplineSet
150 612 m 0xeee0
 222 612 280 554 280 482 c 2xede0
 280 175 l 2
 280 95 325 68 410 68 c 0
 495 68 540 110 540 110 c 1
 540 180 l 1
 540 229 l 1
 434 230 340 268 340 359 c 0
 340 403 378 439 420 439 c 0xdee0
 462 439 500 407 500 361 c 0
 500 326 482 310 472 304 c 1
 488 299 508 297 528 297 c 0
 532 297 536 297 540 297 c 1
 540 590 l 1
 650 590 l 1
 650 336 l 1
 689 362 730 399 750 438 c 1
 750 324 l 1
 733 294 693 268 650 250 c 1
 650 80 l 1
 650 80 593 -12 410 -12 c 0
 227 -12 170 51 170 175 c 2
 170 354 l 1
 163 353 157 352 150 352 c 0
 78 352 20 410 20 482 c 0
 20 554 78 612 150 612 c 0xeee0
150 532 m 0
 122 532 100 510 100 482 c 0
 100 454 122 432 150 432 c 0
 178 432 200 454 200 482 c 0
 200 510 178 532 150 532 c 0
420 394 m 0xdce0
 401 394 385 378 385 359 c 0
 385 340 401 324 420 324 c 0
 439 324 455 340 455 359 c 0
 455 378 439 394 420 394 c 0xdce0
EndSplineSet
Validated: 1
EndChar

StartChar: uni0E2A
Encoding: 3626 3626 67
Width: 660
VWidth: 0
Flags: W
HStem: -12 70<153.531 226.469> 0 21G<440 474.5> 138 70<190 225.376> 310 80<213.47 349.868> 532 80<174.328 389.954> 560 100<532.252 620>
VStem: 80 110<208 288.304> 80 70<62.6236 135.563> 230 70<61.5305 134.469> 440 110<20.25 211.687> 450 100<280 473.423>
LayerCount: 5
Fore
SplineSet
620 660 m 5x35a0
 620 560 l 5
 573 560 538 541 513 520 c 5
 536 483 550 433 550 364 c 6x35a0
 550 24 l 5
 550 24 509 0 440 0 c 5x74c0
 440 135 l 6
 440 200 363 310 280 310 c 4
 210 310 190 257 190 240 c 6
 190 208 l 5
 251 208 300 159 300 98 c 4
 300 37 251 -12 190 -12 c 4xb2c0
 129 -12 80 37 80 98 c 6xb180
 80 210 l 6xb280
 80 284 142 390 280 390 c 4
 368 390 439 311 450 280 c 5
 450 402 l 6
 450 459 403 532 290 532 c 4
 207 532 145 502 80 435 c 5
 80 525 l 5
 127 570 195 612 290 612 c 4xb9a0
 351 612 407 604 452 578 c 5
 492 622 547 660 620 660 c 5x35a0
190 138 m 4xb280
 168 138 150 120 150 98 c 4xb180
 150 76 168 58 190 58 c 4
 212 58 230 76 230 98 c 4
 230 120 212 138 190 138 c 4xb280
EndSplineSet
Validated: 1
EndChar

StartChar: uni0E2B
Encoding: 3627 3627 31
Width: 710
VWidth: 0
Flags: W
HStem: 0 21G<170 280 490 600> 372 75<121.619 169.111> 537 75<120.515 199.485> 547 65<489.488 570.512>
VStem: 40 75<452.516 531.484> 170 110<0 168.846 283 372> 205 75<451.412 530.381> 420 65<461.269 542.512> 490 110<0 360> 575 65<461.2 542.512>
LayerCount: 2
Fore
SplineSet
160 612 m 0xed80
 226 612 280 558 280 492 c 2xeb
 280 283 l 1
 339 353 407 401 449 427 c 1
 431 447 420 473 420 502 c 0
 420 563 469 612 530 612 c 0
 591 612 640 563 640 502 c 0xdd40
 640 460 616 423 581 404 c 1
 600 395 l 1
 600 0 l 1
 490 0 l 1
 490 360 l 1
 490 360 280 253 280 49 c 2
 280 0 l 1
 170 0 l 1
 170 372 l 1
 160 372 l 2
 94 372 40 426 40 492 c 0
 40 558 94 612 160 612 c 0xed80
530 547 m 0xd940
 505 547 485 527 485 502 c 0
 485 477 505 457 530 457 c 0
 555 457 575 477 575 502 c 0
 575 527 555 547 530 547 c 0xd940
160 537 m 0xeb
 135 537 115 517 115 492 c 0
 115 467 135 447 160 447 c 0
 185 447 205 467 205 492 c 0
 205 517 185 537 160 537 c 0xeb
EndSplineSet
EndChar

StartChar: uni0E2C
Encoding: 3628 3628 68
Width: 850
VWidth: 0
Flags: W
HStem: 372 75<121.619 169.111> 537 75<120.515 199.485> 595 65<584.488 665.512>
VStem: 40 75<452.516 531.484> 170 110<78.9861 372> 205 75<451.412 530.381> 515 65<509.851 590.512> 580 110<75 456.028> 670 65<550 590.437>
LayerCount: 5
Fore
SplineSet
625 660 m 0xb2
 686 660 735 611 735 550 c 1xb280
 781 584 810 625 810 625 c 1
 810 525 l 1
 810 525 772 469 690 448 c 1
 690 70 l 1
 690 70 628 -6 525 -6 c 1
 430 380 l 1
 335 -6 l 1
 182 -6 170 31 170 220 c 2
 170 372 l 1xb9
 160 372 l 2
 94 372 40 426 40 492 c 0
 40 558 94 612 160 612 c 0
 226 612 280 558 280 492 c 2
 280 75 l 1
 395 540 l 1
 465 540 l 1
 580 75 l 1
 580 450 l 1xd5
 542 467 515 505 515 550 c 0
 515 611 564 660 625 660 c 0xb2
625 595 m 0
 600 595 580 575 580 550 c 0
 580 525 600 505 625 505 c 0
 650 505 670 525 670 550 c 0
 670 575 650 595 625 595 c 0
160 537 m 0xd4
 135 537 115 517 115 492 c 0
 115 467 135 447 160 447 c 0
 185 447 205 467 205 492 c 0
 205 517 185 537 160 537 c 0xd4
EndSplineSet
Validated: 1
EndChar

StartChar: uni0E2D
Encoding: 3629 3629 69
Width: 580
VWidth: 0
Flags: HWO
HStem: -12 80<187.44 372.56> 190 75<150.377 209.485> 355 75<130.515 209.485> 535 80<139.877 360.177>
VStem: 50 100<101.031 192> 50 75<269.412 348.381> 215 75<270.516 349.484> 410 100<100.044 483.797>
LayerCount: 5
Fore
SplineSet
410 393 m 2xfb
 410 482 366 535 260 535 c 0
 189 535 120 511 40 447 c 1
 40 537 l 1
 94 580 170 615 260 615 c 0
 406 615 510 565 510 354 c 2
 510 140 l 1
 510 140 487 -12 280 -12 c 0
 73 -12 50 128 50 200 c 6
 50 310 l 2xf7
 50 376 104 430 170 430 c 0
 236 430 290 376 290 310 c 0
 290 244 236 190 170 190 c 0
 163 190 157 191 150 192 c 1
 150 170 l 2
 150 131 173 73 280 73 c 0
 391 73 410 140 410 140 c 1
 410 393 l 2xfb
170 355 m 0
 145 355 125 335 125 310 c 0
 125 285 145 265 170 265 c 0
 195 265 215 285 215 310 c 0
 215 335 195 355 170 355 c 0
EndSplineSet
EndChar

StartChar: uni0E2E
Encoding: 3630 3630 70
Width: 670
VWidth: 0
Flags: W
HStem: -12 90<214.791 412.952> 180 75<190.377 249.485> 345 75<170.515 249.485> 530 85<179.877 402.724> 560 100<542.41 630>
VStem: 90 100<104.111 182> 90 75<259.412 338.381> 255 75<260.516 339.484> 450 110<110.064 483.224>
LayerCount: 5
Fore
SplineSet
630 660 m 1xed80
 630 560 l 1
 583 560 547 541 522 520 c 1
 546 481 560 427 560 354 c 2
 560 117 l 1
 560 117 527 -12 320 -12 c 0
 113 -12 90 84 90 177 c 2xed80
 90 300 l 2xeb80
 90 366 144 420 210 420 c 0
 276 420 330 366 330 300 c 0
 330 234 276 180 210 180 c 0
 203 180 197 181 190 182 c 1
 190 147 l 2
 190 105 243 78 320 78 c 0
 397 78 450 129 450 129 c 1
 450 210 l 1
 450 393 l 2
 450 482 406 530 300 530 c 4
 229 530 160 506 80 442 c 5
 80 537 l 1
 134 580 210 615 300 615 c 0xf580
 362 615 418 606 463 579 c 1
 503 623 558 660 630 660 c 1xed80
210 345 m 0
 185 345 165 325 165 300 c 0xe380
 165 275 185 255 210 255 c 0
 235 255 255 275 255 300 c 0
 255 325 235 345 210 345 c 0
EndSplineSet
Validated: 1
EndChar

StartChar: uni0E2F
Encoding: 3631 3631 71
Width: 610
VWidth: 0
Flags: W
HStem: -12 80<235 355.422> 343 75<220.218 319.674> 530 65<89.4878 170.512>
VStem: 20 65<445.577 525.512> 175 65<444.327 525.512> 380 110<93.2856 410.14> 410 80<504.415 570>
LayerCount: 2
Fore
SplineSet
130 595 m 4xfa
 191 595 240 546 240 485 c 4
 240 465 238 439 220 418 c 5
 312 418 395 479 410 570 c 5
 490 570 l 5xfa
 490 108 l 5
 490 108 456 -12 205 -12 c 5
 235 68 l 5
 337 68 380 108 380 108 c 5
 380 310 l 6xfc
 380 358 410 418 410 418 c 5
 410 418 333 343 225 343 c 4
 123 343 20 373 20 485 c 4
 20 546 69 595 130 595 c 4xfa
130 530 m 4
 105 530 85 510 85 485 c 4
 85 460 105 440 130 440 c 4
 155 440 175 460 175 485 c 4
 175 510 155 530 130 530 c 4
EndSplineSet
EndChar

StartChar: uni0E30
Encoding: 3632 3632 72
Width: 620
VWidth: 0
Flags: W
HStem: 30 80<191.605 339.877> 240 60<92.9321 167.068> 330 80<191.605 339.877> 540 60<92.9321 167.068>
VStem: 30 60<162.473 237.068 462.473 537.068> 170 60<162.977 237.068 462.977 537.068> 420 100<195.976 280 495.976 580>
LayerCount: 2
Fore
SplineSet
130 300 m 0
 185 300 230 255 230 200 c 0
 230 167 214 138 189 119 c 1
 207 113 229 110 255 110 c 0
 341 110 416 181 420 280 c 1
 520 280 l 1
 520 132 399 30 255 30 c 0
 96 30 30 109 30 200 c 0
 30 255 75 300 130 300 c 0
130 240 m 0
 108 240 90 222 90 200 c 0
 90 178 108 160 130 160 c 0
 152 160 170 178 170 200 c 0
 170 222 152 240 130 240 c 0
130 600 m 0
 185 600 230 555 230 500 c 0
 230 467 214 438 189 419 c 1
 207 413 229 410 255 410 c 0
 341 410 416 481 420 580 c 1
 520 580 l 1
 520 432 399 330 255 330 c 0
 96 330 30 409 30 500 c 0
 30 555 75 600 130 600 c 0
130 540 m 0
 108 540 90 522 90 500 c 0
 90 478 108 460 130 460 c 0
 152 460 170 478 170 500 c 0
 170 522 152 540 130 540 c 0
EndSplineSet
Validated: 1
EndChar

StartChar: uni0E31
Encoding: 3633 3633 14
Width: 0
VWidth: 0
Flags: W
HStem: 690 70<-345.61 -200.763> 900 60<-437.068 -362.932>
VStem: -500 60<822.784 897.068> -360 60<822.843 897.068> -130 90<840.188 942>
LayerCount: 5
Fore
SplineSet
-400 960 m 4
 -345 960 -300 915 -300 860 c 4
 -300 824 -319 792 -348 775 c 5
 -328 765 -309 760 -280 760 c 4
 -192 760 -134 833 -130 942 c 5
 -40 942 l 5
 -40 794 -126 690 -280 690 c 4
 -429 690 -500 771 -500 860 c 4
 -500 915 -455 960 -400 960 c 4
-400 900 m 4
 -422 900 -440 882 -440 860 c 4
 -440 838 -422 820 -400 820 c 4
 -378 820 -360 838 -360 860 c 4
 -360 882 -378 900 -400 900 c 4
EndSplineSet
Position2: "Left Upper Vowel" dx=-150 dy=0 dh=0 dv=0
Position2: "Normal Upper Vowel" dx=100 dy=0 dh=0 dv=0
EndChar

StartChar: uni0E32
Encoding: 3634 3634 36
Width: 480
VWidth: 0
Flags: W
HStem: 0 21G<310 410> 532 80<76.1131 257.029>
VStem: 310 100<0 474.082>
LayerCount: 5
Fore
SplineSet
310 0 m 5
 310 380 l 5
 308 497 233 532 180 532 c 4
 110 532 53 501 0 450 c 5
 0 540 l 5
 45 580 86 612 180 612 c 4
 331 612 410 530 410 380 c 6
 410 0 l 5
 310 0 l 5
EndSplineSet
Substitution2: "Thai Lakkhangyao" uni0E45
EndChar

StartChar: uni0E34
Encoding: 3636 3636 10
Width: 0
VWidth: 0
Flags: W
HStem: 690 55<-565 -285> 815 75<-532.064 -338.083>
LayerCount: 2
Fore
SplineSet
-670 690 m 1
 -670 778 -598 890 -450 890 c 1
 -310 885 -219 793 -170 690 c 1
 -670 690 l 1
-450 815 m 0
 -516 815 -550 782 -565 745 c 1
 -285 745 l 1
 -331 797 -386 815 -450 815 c 0
EndSplineSet
Validated: 1
Position2: "Left Upper Vowel" dx=-100 dy=0 dh=0 dv=0
Position2: "Normal Upper Vowel" dx=50 dy=0 dh=0 dv=0
EndChar

StartChar: uni0E35
Encoding: 3637 3637 12
Width: 0
VWidth: 0
Flags: W
HStem: 690 55<-515 -255> 815 75<-485.859 -306.558>
LayerCount: 5
Fore
SplineSet
-260 940 m 1
 -140 940 l 1
 -140 690 l 1
 -140 690 -453 690 -620 690 c 5
 -620 778 -558 890 -410 890 c 1
 -323 887 -266 851 -215 799 c 1
 -260 940 l 1
-410 815 m 0
 -476 815 -500 782 -515 745 c 5
 -255 745 l 1
 -301 797 -346 815 -410 815 c 0
EndSplineSet
Position2: "Left Upper Vowel" dx=-100 dy=0 dh=0 dv=0
Position2: "Normal Upper Vowel" dx=50 dy=0 dh=0 dv=0
EndChar

StartChar: uni0E36
Encoding: 3638 3638 17
Width: 0
VWidth: 0
Flags: W
HStem: 690 105<-227.563 -158.56> 690 55<-505 -245> 815 75<-475.859 -297.196> 875 60<-227.438 -152.932>
VStem: -610 380<690 835> -150 60<797.76 872.068>
LayerCount: 5
Fore
SplineSet
-190 935 m 0x1c
 -135 935 -90 890 -90 835 c 0
 -90 791 -118 754 -158 740 c 1
 -148 724 -138 707 -130 690 c 1
 -610 690 l 5
 -610 778 -548 890 -400 890 c 1x6c
 -354 888 -323 877 -287 859 c 1
 -276 903 -237 935 -190 935 c 0x1c
-190 875 m 0x9c
 -212 875 -230 857 -230 835 c 0
 -230 813 -212 795 -190 795 c 0
 -168 795 -150 813 -150 835 c 0
 -150 857 -168 875 -190 875 c 0x9c
-400 815 m 0x6c
 -466 815 -490 782 -505 745 c 5
 -245 745 l 1
 -291 797 -336 815 -400 815 c 0x6c
EndSplineSet
Position2: "Left Upper Vowel" dx=-100 dy=0 dh=0 dv=0
Position2: "Normal Upper Vowel" dx=50 dy=0 dh=0 dv=0
EndChar

StartChar: uni0E37
Encoding: 3639 3639 16
Width: 0
VWidth: 0
Flags: W
HStem: 690 55<-515 -255> 815 75<-485.859 -339.616>
VStem: -220 80<804 940>
LayerCount: 5
Fore
SplineSet
-370 940 m 1
 -260 940 l 1
 -260 837 l 1
 -246 827 -232 816 -220 804 c 1
 -220 940 l 1
 -140 940 l 1
 -140 690 l 1
 -140 690 -453 690 -620 690 c 5
 -620 778 -558 890 -410 890 c 1
 -380 889 -363 884 -338 876 c 1
 -370 940 l 1
-410 815 m 0
 -476 815 -500 782 -515 745 c 5
 -255 745 l 1
 -301 797 -346 815 -410 815 c 0
EndSplineSet
Position2: "Left Upper Vowel" dx=-100 dy=0 dh=0 dv=0
Position2: "Normal Upper Vowel" dx=50 dy=0 dh=0 dv=0
EndChar

StartChar: uni0E38
Encoding: 216 3640 11
Width: 0
VWidth: 0
Flags: W
HStem: -240 55<-213.5 -170.338> -115 55<-213.5 -146.5>
VStem: -270 55<-183.5 -116.5> -170 80<-340 -239> -145 55<-183.878 -116.878>
LayerCount: 2
Fore
SplineSet
-180 -60 m 0xf0
 -130 -60 -90 -100 -90 -150 c 2xe8
 -90 -340 l 1
 -170 -340 l 1
 -170 -239 l 1
 -173 -240 -177 -240 -180 -240 c 0
 -230 -240 -270 -200 -270 -150 c 0
 -270 -100 -230 -60 -180 -60 c 0xf0
-180 -115 m 0
 -199 -115 -215 -131 -215 -150 c 0
 -215 -169 -199 -185 -180 -185 c 0
 -161 -185 -145 -169 -145 -150 c 0
 -145 -131 -161 -115 -180 -115 c 0
EndSplineSet
Validated: 1
Position2: "Vowel Below-Low" dx=0 dy=-180 dh=0 dv=0
EndChar

StartChar: uni0E39
Encoding: 3641 3641 39
Width: 0
VWidth: 0
Flags: W
HStem: -560 70<-308.338 -210.632> -435 60<-446.573 -410> -295 60<-447.068 -372.932>
VStem: -510 60<-372.068 -297.932> -410 100<-486.212 -435> -370 60<-372.563 -298.427> -210 100<-486.722 -250>
LayerCount: 2
Fore
SplineSet
-410 -235 m 0xfa
 -355 -235 -310 -280 -310 -335 c 2xf6
 -310 -449 l 2
 -310 -479 -294 -490 -260 -490 c 0
 -226 -490 -210 -473 -210 -473 c 1
 -210 -250 l 1
 -110 -250 l 1
 -110 -508 l 1
 -110 -508 -166 -560 -260 -560 c 0
 -353 -560 -410 -537 -410 -468 c 2
 -410 -435 l 1
 -465 -435 -510 -390 -510 -335 c 0
 -510 -280 -465 -235 -410 -235 c 0xfa
-410 -295 m 0xfa
 -432 -295 -450 -313 -450 -335 c 0
 -450 -357 -432 -375 -410 -375 c 0xfa
 -388 -375 -370 -357 -370 -335 c 0xf6
 -370 -313 -388 -295 -410 -295 c 0xfa
EndSplineSet
Validated: 1
Position2: "Lower Vowel" dx=0 dy=180 dh=0 dv=0
EndChar

StartChar: uni0E3A
Encoding: 218 3642 60
Width: 0
VWidth: 0
Flags: W
HStem: -200 140<-204.125 -95.8748>
VStem: -220 140<-184.125 -75.8748>
LayerCount: 2
Fore
SplineSet
-80 -130 m 0
 -80 -169 -111 -200 -150 -200 c 0
 -189 -200 -220 -169 -220 -130 c 0
 -220 -91 -189 -60 -150 -60 c 0
 -111 -60 -80 -91 -80 -130 c 0
EndSplineSet
Validated: 1
Position2: "Vowel Below-Low" dx=0 dy=-180 dh=0 dv=0
EndChar

StartChar: uni0E3F
Encoding: 223 3647 92
Width: 750
VWidth: 0
Flags: W
HStem: 0 100<190 320 400 493.945> 400 90<190 320> 770 90<190 320 400 456.572>
VStem: 80 110<100 400 490 770> 320 80<-150 0 100 399 492 765 860 1010> 520 110<547.74 711.084> 560 110<159.401 333.117>
LayerCount: 2
Back
SplineSet
80 0 m 5xf4
 80 860 l 5
 330 860 l 6
 551 860 630 757 630 620 c 4xf8
 630 564 601 494 530 452 c 5
 644 413 670 321 670 241 c 4
 670 66 557 0 420 0 c 6
 80 0 l 5xf4
190 400 m 5
 190 100 l 5
 390 100 l 6
 469 100 560 136 560 242 c 4xf4
 560 348 483 400 380 400 c 6
 190 400 l 5
190 490 m 5
 370 490 l 6
 457 490 520 548 520 630 c 4xf8
 520 712 465 770 340 770 c 6
 190 770 l 5
 190 490 l 5
320 1010 m 5
 400 1010 l 5
 400 -150 l 5
 320 -150 l 5
 320 1010 l 5
EndSplineSet
Fore
SplineSet
320 1010 m 1xfa
 400 1010 l 1
 400 856 l 1
 568 836 630 741 630 620 c 0xfc
 630 564 601 494 530 452 c 1
 644 413 670 321 670 241 c 0
 670 66 557 0 420 0 c 2
 400 0 l 1
 400 -150 l 1
 320 -150 l 1
 320 0 l 1
 80 0 l 1
 80 860 l 1
 320 860 l 1
 320 1010 l 1xfa
190 770 m 1
 190 490 l 1
 320 490 l 1
 320 770 l 1
 190 770 l 1
400 765 m 1
 400 492 l 1
 471 504 520 558 520 630 c 0
 520 697 483 749 400 765 c 1
190 400 m 1
 190 100 l 1
 320 100 l 1
 320 400 l 1
 190 400 l 1
400 399 m 1
 400 100 l 1
 476 103 560 140 560 242 c 0xfa
 560 341 493 393 400 399 c 1
EndSplineSet
Validated: 1
EndChar

StartChar: uni0E40
Encoding: 3648 3648 7
Width: 360
VWidth: 0
Flags: W
HStem: -12 70<163.531 236.469> 138 70<200 235.376>
VStem: 90 110<208 590> 90 70<62.6236 135.563> 240 70<61.5305 134.469>
LayerCount: 2
Fore
SplineSet
90 590 m 1xe8
 200 590 l 1
 200 208 l 1
 261 208 310 159 310 98 c 0
 310 37 261 -12 200 -12 c 0xe8
 139 -12 90 37 90 98 c 2xd8
 90 590 l 1xe8
200 138 m 0
 178 138 160 120 160 98 c 0xd8
 160 76 178 58 200 58 c 0
 222 58 240 76 240 98 c 0
 240 120 222 138 200 138 c 0
EndSplineSet
Validated: 1
EndChar

StartChar: uni0E42
Encoding: 3650 3650 74
Width: 350
VWidth: 0
Flags: W
HStem: -12 70<183.531 256.469> 138 70<220 255.376> 940 80<298.984 370> 952 80<91.3821 254.397>
VStem: 110 110<208 790.124> 110 70<62.6236 135.563> 260 70<61.5305 134.469>
LayerCount: 2
Fore
SplineSet
150 1032 m 0xda
 226 1032 263 1004 283 985 c 1
 300 1004 340 1020 370 1020 c 1
 370 940 l 1xea
 339 937 299 920 283 900 c 1
 250 936 219 952 160 952 c 0
 110 952 88 928 70 902 c 1
 129 882 220 832 220 650 c 2
 220 208 l 1
 281 208 330 159 330 98 c 0
 330 37 281 -12 220 -12 c 0xda
 159 -12 110 37 110 98 c 2xd6
 110 650 l 2
 110 809 71 862 -40 862 c 1
 -40 944 55 1032 150 1032 c 0xda
220 138 m 0
 198 138 180 120 180 98 c 0xc6
 180 76 198 58 220 58 c 0
 242 58 260 76 260 98 c 0
 260 120 242 138 220 138 c 0
EndSplineSet
Validated: 1
EndChar

StartChar: uni0E43
Encoding: 3651 3651 75
Width: 350
VWidth: 0
Flags: W
HStem: -12 70<193.531 266.469> 138 70<230 265.376> 727 70<43.3212 122.788> 887 65<83 123.002> 972 60<83.5478 195.804>
VStem: -40 78<801.401 881.571> 120 110<208 635.73> 128 64<60.0787 136.194 802.038 881.688> 231 79<761.507 935.517> 270 70<61.5305 134.469>
LayerCount: 2
Fore
SplineSet
130 1032 m 0xfd80
 237 1032 310 947 310 860 c 0xfd80
 310 720 230 665 230 510 c 2
 230 208 l 1
 291 208 340 159 340 98 c 0
 340 37 291 -12 230 -12 c 0
 169 -12 120 37 120 98 c 2
 120 510 l 2xfe40
 120 661 231 749 231 860 c 0
 231 914 196 972 130 972 c 0
 106 972 89 961 83 952 c 1
 84 952 85 952 87 952 c 0
 151 952 192 899 192 842 c 0
 192 779 143 727 81 727 c 0
 19 727 -40 787 -40 865 c 0
 -40 948 25 1032 130 1032 c 0xfd80
83 887 m 0
 59 887 38 867 38 842 c 0
 38 817 59 797 83 797 c 0
 108 797 128 817 128 842 c 0
 128 867 108 887 83 887 c 0
230 138 m 0xfe40
 208 138 190 120 190 98 c 0
 190 76 208 58 230 58 c 0
 252 58 270 76 270 98 c 0
 270 120 252 138 230 138 c 0xfe40
EndSplineSet
EndChar

StartChar: uni0E44
Encoding: 3652 3652 76
Width: 360
VWidth: 0
Flags: W
HStem: -12 70<193.531 266.469> 138 70<230 265.376> 950 90<-40 10.6875>
VStem: 120 110<208 701.89> 120 70<62.6236 135.563> 230 75<841.547 938.868> 270 70<61.5305 134.469>
LayerCount: 5
Fore
SplineSet
-40 1040 m 1xe4
 32 1040 90 930 90 930 c 1
 225 1030 l 1
 272 1030 305 977 305 930 c 0xe4
 305 796 230 743 230 570 c 2
 230 208 l 1
 291 208 340 159 340 98 c 0xf2
 340 37 291 -12 230 -12 c 0
 169 -12 120 37 120 98 c 2xec
 120 570 l 1xf0
 127 750 230 835 230 940 c 1
 80 830 l 1
 80 830 19 950 -40 950 c 1
 -40 1040 l 1xe4
230 138 m 0
 208 138 190 120 190 98 c 0
 190 76 208 58 230 58 c 0xec
 252 58 270 76 270 98 c 0xe2
 270 120 252 138 230 138 c 0
EndSplineSet
EndChar

StartChar: uni0E45
Encoding: 3653 3653 77
Width: 340
VWidth: 0
Flags: W
HStem: 532 80<-116.095 63.4189>
VStem: 115 115<-260 474.082>
LayerCount: 2
Fore
SplineSet
115 -260 m 1
 115 380 l 1
 113 497 43 532 -10 532 c 0
 -80 532 -137 501 -200 450 c 1
 -200 540 l 1
 -150 575 -104 612 -10 612 c 0
 141 612 230 530 230 380 c 2
 230 -260 l 1
 115 -260 l 1
EndSplineSet
Validated: 1
EndChar

StartChar: uni0E46
Encoding: 3654 3654 78
Width: 760
VWidth: 0
Flags: W
HStem: 210 75<214.489 305.511> 395 75<260 304.78>
VStem: 130 75<294.217 382.691> 315 75<294.489 385.511> 405 110<-260 197.394> 485 100<267.773 480.354>
LayerCount: 2
Fore
SplineSet
283 612 m 1xf4
 362 540 l 1
 441 612 l 1
 553 558 583 460 585 369 c 1xf4
 585 284 515 197 515 86 c 6
 515 -260 l 1
 405 -260 l 1
 405 86 l 6xf8
 405 189 485 282 485 369 c 0
 485 472 432 520 432 520 c 1
 362 455 l 1
 290 520 l 1
 269 514 260 488 260 470 c 1
 332 470 390 412 390 340 c 0
 390 268 332 210 260 210 c 0
 188 210 130 263 130 350 c 0
 130 565 283 612 283 612 c 1xf4
260 395 m 0
 230 395 205 370 205 340 c 0
 205 310 230 285 260 285 c 0
 290 285 315 310 315 340 c 0
 315 370 290 395 260 395 c 0
EndSplineSet
EndChar

StartChar: uni0E47
Encoding: 3655 3655 35
Width: 0
VWidth: 0
Flags: W
HStem: 674 60<-296.549 -222.545> 680 80<-555.888 -528> 814 50<-296 -224> 905 55<-502.414 -284.37> 920 60<-548.06 -364.486>
VStem: -655 85<766.098 899.427> -350 50<752.246 810> -225 95<1015.96 1090> -220 50<738.116 810>
LayerCount: 5
Fore
SplineSet
-130 1090 m 1x37
 -130 969 -235 905 -357 905 c 0x37
 -420 905 -446 920 -509 920 c 0
 -534 920 -570 879 -570 835 c 0
 -570 792 -549 760 -528 760 c 1x6f
 -465 838 l 1
 -410 838 l 1
 -410 785 -348 752 -348 752 c 1
 -348 752 -350 768 -350 774 c 0
 -350 824 -310 864 -260 864 c 0
 -210 864 -170 824 -170 774 c 0
 -170 723 -210 674 -285 674 c 0xa680
 -361 674 -414 708 -446 769 c 1
 -510 680 l 1
 -619 680 -655 760 -655 835 c 0
 -655 911 -596 980 -502 980 c 0x6e80
 -432 980 -411 960 -367 960 c 0
 -285 960 -225 1021 -225 1090 c 1
 -130 1090 l 1x37
-260 814 m 0
 -282 814 -300 796 -300 774 c 0
 -300 752 -282 734 -260 734 c 0
 -238 734 -220 752 -220 774 c 0xa680
 -220 796 -238 814 -260 814 c 0
EndSplineSet
Validated: 1
Position2: "Left Upper Vowel" dx=-100 dy=0 dh=0 dv=0
Position2: "Normal Upper Vowel" dx=70 dy=0 dh=0 dv=0
EndChar

StartChar: uni0E48
Encoding: 3656 3656 13
Width: 0
VWidth: 0
Flags: W
HStem: 1000 250<-240 -150>
VStem: -240 90<1000 1250>
LayerCount: 5
Fore
SplineSet
-240 1250 m 5
 -150 1250 l 1
 -150 1000 l 1
 -240 1000 l 5
 -240 1250 l 5
EndSplineSet
Position2: "Thai Tone and Asc Vowel Fix" dx=20 dy=-310 dh=0 dv=0
Position2: "Left-Low Tone" dx=-120 dy=-310 dh=0 dv=0
Position2: "Left-High Tone" dx=-180 dy=0 dh=0 dv=0
Position2: "High Tone" dx=70 dy=0 dh=0 dv=0
Position2: "Low Tone" dx=70 dy=-310 dh=0 dv=0
EndChar

StartChar: uni0E49
Encoding: 3657 3657 23
Width: 0
VWidth: 0
Flags: W
HStem: 988 152<-347.455 -173.219> 988 70<-280 -183.704> 1220 60<-357.068 -282.932>
VStem: -420 60<1142.96 1217.07> -280 60<1143.28 1217.07> -80 90<1164.53 1258>
LayerCount: 5
Fore
SplineSet
-320 1280 m 4xbc
 -265 1280 -220 1235 -220 1180 c 4
 -220 1128 -252 1078 -280 1058 c 5x7c
 -133 1058 -80 1186 -80 1258 c 5
 10 1258 l 5
 10 1163 -64 988 -285 988 c 4
 -325 988 -378 997 -420 1014 c 5
 -395 1028 -366 1056 -348 1084 c 5
 -389 1096 -420 1134 -420 1180 c 4
 -420 1235 -375 1280 -320 1280 c 4xbc
-320 1220 m 4
 -342 1220 -360 1202 -360 1180 c 4
 -360 1158 -342 1140 -320 1140 c 4xbc
 -298 1140 -280 1158 -280 1180 c 4
 -280 1202 -298 1220 -320 1220 c 4
EndSplineSet
Position2: "Thai Tone and Asc Vowel Fix" dx=-60 dy=-310 dh=0 dv=0
Position2: "Left-Low Tone" dx=-250 dy=-310 dh=0 dv=0
Position2: "Left-High Tone" dx=-80 dy=0 dh=0 dv=0
Position2: "High Tone" dx=100 dy=0 dh=0 dv=0
Position2: "Low Tone" dx=100 dy=-310 dh=0 dv=0
EndChar

StartChar: uni0E4A
Encoding: 3658 3658 34
Width: 0
VWidth: 0
Flags: W
HStem: 988.3 50<-443.948 -369.925> 1118.3 50<-442.565 -370.719>
VStem: -510 63<1042.45 1115.86> -367 50<1041.11 1115.06> -260 69<1073.17 1209.3> -120 90<1124.57 1260.3>
LayerCount: 2
Fore
SplineSet
-410 1267.3 m 1
 -355 1223.3 l 1
 -300 1267.3 l 1
 -246.808 1267.3 -191 1196.08 -191 1121.3 c 0
 -191 1100.53 -198 1082.3 -201 1072.3 c 1
 -156.47 1096.79 -120 1130.4 -120 1260.3 c 1
 -30 1260.3 l 1
 -30 1039.3 -139 988.3 -307 988.3 c 1
 -276 1032.3 -260 1077.3 -260 1121.3 c 0
 -260 1167.3 -267 1184.3 -290 1215.3 c 1
 -355 1173.3 l 1
 -420 1215.3 l 1
 -432.176 1198.19 -441.376 1178.78 -443 1161.3 c 1
 -432.976 1163.81 -412 1168.3 -407 1168.3 c 0
 -356 1168.3 -317 1126.3 -317 1078.3 c 0
 -317 1028.3 -357 988.3 -407 988.3 c 0
 -467.976 988.3 -510 1039.3 -510 1118.3 c 2
 -510 1120.3 l 2
 -510 1191.3 -453.711 1266.05 -410 1267.3 c 1
-407 1118.3 m 0
 -429 1118.3 -447 1100.3 -447 1078.3 c 0
 -447 1056.3 -429 1038.3 -407 1038.3 c 0
 -384 1038.3 -367 1056.3 -367 1078.3 c 0
 -367 1100.3 -384 1118.3 -407 1118.3 c 0
EndSplineSet
Position2: "Thai Tone and Asc Vowel Fix" dx=-60 dy=-310 dh=0 dv=0
Position2: "Left-Low Tone" dx=-250 dy=-310 dh=0 dv=0
Position2: "Left-High Tone" dx=-100 dy=0 dh=0 dv=0
Position2: "High Tone" dx=100 dy=0 dh=0 dv=0
Position2: "Low Tone" dx=100 dy=-310 dh=0 dv=0
EndChar

StartChar: uni0E4B
Encoding: 3659 3659 15
Width: 0
VWidth: 0
Flags: W
HStem: 1095 60<-390 -295 -195 -100>
VStem: -295 100<1000 1095 1155 1250>
LayerCount: 2
Fore
SplineSet
-295 1250 m 1
 -195 1250 l 1
 -195 1155 l 1
 -100 1155 l 1
 -100 1095 l 1
 -195 1095 l 1
 -195 1000 l 1
 -295 1000 l 1
 -295 1095 l 1
 -390 1095 l 1
 -390 1155 l 1
 -295 1155 l 1
 -295 1250 l 1
EndSplineSet
Validated: 1
Position2: "Thai Tone and Asc Vowel Fix" dx=-80 dy=-310 dh=0 dv=0
Position2: "Left-Low Tone" dx=-150 dy=-310 dh=0 dv=0
Position2: "Left-High Tone" dx=-180 dy=0 dh=0 dv=0
Position2: "High Tone" dx=70 dy=0 dh=0 dv=0
Position2: "Low Tone" dx=70 dy=-310 dh=0 dv=0
EndChar

StartChar: uni0E4C
Encoding: 3660 3660 28
Width: 0
VWidth: 0
Flags: W
HStem: 920 60<-367.068 -292.932>
VStem: -430 60<982.932 1056.51> -290 60<982.932 1057.17> -210 90<1196.69 1280>
LayerCount: 5
Fore
SplineSet
-210 1280 m 5
 -120 1280 l 5
 -120 1171 -202 1095 -258 1089 c 5
 -241 1071 -230 1047 -230 1020 c 4
 -230 965 -275 920 -330 920 c 4
 -385 920 -430 965 -430 1020 c 4
 -430 1076 -388 1125 -316 1140 c 4
 -253 1153 -210 1217 -210 1280 c 5
-330 1060 m 4
 -352 1060 -370 1042 -370 1020 c 4
 -370 998 -352 980 -330 980 c 4
 -308 980 -290 998 -290 1020 c 4
 -290 1042 -308 1060 -330 1060 c 4
EndSplineSet
Position2: "Thai Tone and Asc Vowel Fix" dx=0 dy=-240 dh=0 dv=0
Position2: "Left-Low Tone" dx=-20 dy=-240 dh=0 dv=0
Position2: "Left-High Tone" dx=-60 dy=10 dh=0 dv=0
Position2: "High Tone" dx=100 dy=10 dh=0 dv=0
Position2: "Low Tone" dx=100 dy=-240 dh=0 dv=0
EndChar

StartChar: uni0E4D
Encoding: 3661 3661 38
Width: 0
VWidth: 0
Flags: W
HStem: 660 65<-301.402 -198.598> 855 65<-301.402 -198.598>
VStem: -380 65<738.598 841.402> -185 65<738.598 841.402>
LayerCount: 5
Fore
SplineSet
-250 920 m 0
 -178 920 -120 862 -120 790 c 0
 -120 718 -178 660 -250 660 c 0
 -322 660 -380 718 -380 790 c 0
 -380 862 -322 920 -250 920 c 0
-250 855 m 0
 -286 855 -315 826 -315 790 c 0
 -315 754 -286 725 -250 725 c 0
 -214 725 -185 754 -185 790 c 0
 -185 826 -214 855 -250 855 c 0
EndSplineSet
Position2: "Normal Upper Vowel" dx=100 dy=0 dh=0 dv=0
Position2: "Left Upper Vowel" dx=-100 dy=0 dh=0 dv=0
EndChar

StartChar: uni0E50
Encoding: 240 3664 65
Width: 1044
VWidth: 0
Flags: W
LayerCount: 2
Back
SplineSet
522 872 m 4
 766 872 964 674 964 430 c 4
 964 186 766 -12 522 -12 c 4
 278 -12 80 186 80 430 c 4
 80 674 278 872 522 872 c 4
522 712 m 4
 388 712 290 586 290 430 c 4
 290 274 388 148 522 148 c 4
 656 148 754 274 754 430 c 4
 754 586 656 712 522 712 c 4
EndSplineSet
EndChar

StartChar: uni0E51
Encoding: 241 3665 83
Width: 1044
VWidth: 0
Flags: W
LayerCount: 2
Back
SplineSet
522 872 m 4
 766 872 964 686 964 430 c 4
 964 201 850 -72 522 -72 c 5
 522 104 l 5
 691 118 764 268 764 430 c 4
 764 586 656 702 522 702 c 4
 388 702 280 606 280 450 c 4
 280 379 313 300 381 300 c 4
 395 300 408 303 418 308 c 5
 384 337 362 381 362 430 c 4
 362 518 434 590 522 590 c 4
 610 590 682 518 682 430 c 4
 682 283 588 140 381 140 c 4
 166 140 80 293 80 450 c 4
 80 694 278 872 522 872 c 4
522 490 m 4
 489 490 462 463 462 430 c 4
 462 397 489 370 522 370 c 4
 555 370 582 397 582 430 c 4
 582 463 555 490 522 490 c 4
EndSplineSet
EndChar

StartChar: uni0E52
Encoding: 3666 3666 82
Width: 1292
VWidth: 0
Flags: W
HStem: 0 160<382.033 937.375> 200 120<572.71 686.872> 480 120<570.893 686.872> 712 160<585.129 688.123 868.017 962.558>
VStem: 118 210<250.901 843.391> 380 170<355.337 564.882 583 670.61> 710 120<343.128 456.872> 724 120<617 675.542> 1002 210<264.514 632.698>
LayerCount: 2
Fore
SplineSet
0 1100 m 1xfe80
 292 1100 325 833 326 700 c 2
 328 450 l 2
 329 270 365 187 410 160 c 1
 922 160 l 1
 980 251 1002 316 1002 430 c 0
 1002 586 987 712 918 712 c 0
 849 712 844 617 844 617 c 1
 724 617 l 1xfd80
 724 617 705 712 630 712 c 0
 575 712 550 629 550 583 c 1
 574 594 601 600 630 600 c 0
 740 600 830 510 830 400 c 0
 830 290 740 200 630 200 c 0
 449 200 380 327 380 550 c 0
 380 734 495 872 630 872 c 0
 716 872 762 815 784 780 c 1
 808 815 853 872 928 872 c 0
 1120 872 1212 674 1212 430 c 0
 1212 294 1173 146 1082 0 c 1
 272 0 l 1
 272 0 118 69 118 420 c 2
 118 700 l 2
 118 776 112 900 0 900 c 1
 0 1100 l 1xfe80
630 480 m 0
 586 480 550 444 550 400 c 0
 550 356 586 320 630 320 c 0
 674 320 710 356 710 400 c 0xfe80
 710 444 674 480 630 480 c 0
EndSplineSet
Validated: 1
EndChar

StartChar: uni0E53
Encoding: 3667 3667 83
Width: 1118
VWidth: 0
Flags: W
HStem: -12 120<314.792 428.872> 0 21G<726 994> 268 120<312.893 428.872> 682 190<334.829 413.951 704.049 783.171>
VStem: 80 212<373.727 610.365> 452 120<131.128 244.872> 474 170<430 592.698> 828 210<212.216 611.108>
LayerCount: 2
Fore
SplineSet
372 872 m 0xbd
 443 872 508 833 559 769 c 1
 610 833 675 872 746 872 c 0
 907 872 1038 674 1038 430 c 0
 1038 294 1022 144 966 0 c 1
 726 0 l 1
 785 163 828 231 828 430 c 0
 828 586 791 682 746 682 c 0
 701 682 644 586 644 430 c 1
 474 430 l 1x7b
 474 586 417 682 372 682 c 0
 327 682 290 586 290 430 c 0
 290 410 291 390 292 371 c 1
 316 382 343 388 372 388 c 0
 482 388 572 298 572 188 c 0
 572 78 482 -12 372 -12 c 0
 164 -12 80 186 80 430 c 0
 80 674 211 872 372 872 c 0xbd
372 268 m 0
 328 268 292 232 292 188 c 0
 292 144 328 108 372 108 c 0
 416 108 452 144 452 188 c 0xbd
 452 232 416 268 372 268 c 0
EndSplineSet
Validated: 1
EndChar

StartChar: uni0E54
Encoding: 244 3668 85
Width: 1092
VWidth: 0
Flags: W
LayerCount: 2
Back
SplineSet
1092 1100 m 5
 1092 900 l 5
 962 900 959 800 910 742 c 4
 885 712 843 692 777 692 c 6
 777 692 615 692 492 692 c 5
 369 691 290 592 290 436 c 4
 290 280 369 160 492 160 c 6
 689 160 l 6
 645 160 490 275 490 430 c 4
 490 540 580 630 690 630 c 4
 800 630 890 540 890 430 c 4
 890 355 849 290 789 256 c 5
 837 197 873 160 972 160 c 5
 972 0 l 5
 492 0 l 6
 218 0 80 192 80 436 c 4
 80 680 264 872 492 872 c 6
 812 872 l 5
 812 872 878 1100 1092 1100 c 5
690 510 m 4
 646 510 610 474 610 430 c 4
 610 386 646 350 690 350 c 4
 734 350 770 386 770 430 c 4
 770 474 734 510 690 510 c 4
EndSplineSet
EndChar

StartChar: uni0E56
Encoding: 3670 3670 85
Width: 1032
VWidth: 0
Flags: W
HStem: -12 160<477.738 608.609> 380 120<283.128 396.872> 702 170<413.917 631.893>
VStem: 140 120<242.069 356.872> 420 120<241.784 356.872> 742 210<300.055 572.664>
LayerCount: 2
Back
SplineSet
0 1100 m 5
 180 1100 266 946 300 760 c 5
 333 833 449 872 540 872 c 4
 768 872 952 674 952 430 c 4
 952 186 804 -12 540 -12 c 4
 296 -12 160 132 160 300 c 4
 160 410 250 500 360 500 c 4
 470 500 560 410 560 300 c 4
 560 242 535 190 496 154 c 5
 510 150 525 148 540 148 c 4
 683 148 752 274 752 430 c 4
 752 586 663 712 540 712 c 4
 424 712 347 650 310 560 c 5
 160 560 l 5
 160 676 130 900 0 900 c 5
 0 1100 l 5
360 380 m 4
 316 380 280 344 280 300 c 4
 280 256 316 220 360 220 c 4
 404 220 440 256 440 300 c 4
 440 344 404 380 360 380 c 4
EndSplineSet
Fore
SplineSet
0 1100 m 1
 180 1100 267 976 301 790 c 1
 344 833 426 872 530 872 c 0
 780 872 952 674 952 430 c 0
 952 186 794 -12 520 -12 c 0
 296 -12 140 122 140 300 c 0
 140 410 230 500 340 500 c 0
 450 500 540 410 540 300 c 0
 540 242 515 190 476 154 c 1
 490 150 505 148 520 148 c 0
 643 148 742 274 742 430 c 0
 742 586 673 702 530 702 c 0
 402 702 328 623 300 560 c 1
 150 560 l 1
 150 676 130 900 0 900 c 1
 0 1100 l 1
340 380 m 0
 296 380 260 344 260 300 c 0
 260 256 296 220 340 220 c 0
 384 220 420 256 420 300 c 0
 420 344 384 380 340 380 c 0
EndSplineSet
Validated: 1
EndChar

StartChar: uni0E57
Encoding: 3671 3671 86
Width: 1342
VWidth: 0
Flags: W
HStem: -12 120<313.983 428.872> 268 120<312.893 428.872> 682 190<334.829 413.951 704.049 782.997>
VStem: 80 212<373.727 610.365> 452 120<131.128 244.872> 474 170<430 592.698> 828 190<283.41 615.186> 1052 210<355.891 770.131>
LayerCount: 5
Fore
SplineSet
922 1100 m 1xfb
 1145 1100 1262 845 1262 540 c 0
 1262 188 1015 -12 746 -12 c 1
 746 148 l 1
 791 148 828 274 828 430 c 0
 828 586 791 682 746 682 c 0
 701 682 644 586 644 430 c 1
 474 430 l 1xf7
 474 586 417 682 372 682 c 0
 327 682 290 586 290 430 c 0
 290 410 291 390 292 371 c 1
 316 382 343 388 372 388 c 0
 482 388 572 298 572 188 c 0
 572 78 482 -12 372 -12 c 0
 157 -12 80 186 80 430 c 0
 80 674 211 872 372 872 c 0
 443 872 508 833 559 769 c 1
 610 833 675 872 746 872 c 0
 907 872 1018 674 1018 430 c 0
 1018 378 1013 327 1003 281 c 1
 1033 339 1052 421 1052 540 c 0
 1052 761 1001 900 922 900 c 1
 922 1100 l 1xfb
372 268 m 0
 328 268 292 232 292 188 c 0
 292 144 328 108 372 108 c 0
 416 108 452 144 452 188 c 0xfb
 452 232 416 268 372 268 c 0
EndSplineSet
Validated: 1
EndChar

StartChar: uni0E58
Encoding: 3672 3672 87
Width: 1180
VWidth: 0
Flags: W
HStem: -12 160<680.455 829.264> 209 120<763.36 861.522> 489 120<765.128 879.124> 680 180<398.812 907.541>
VStem: 80 210<294.143 566.205> 622 120<351.244 466.756> 902 160<231.5 466.114>
LayerCount: 5
Fore
SplineSet
1180 1088 m 1
 1180 888 l 1
 1050 888 1047 788 998 730 c 0
 973 700 931 680 865 680 c 0
 734 680 623 680 492 680 c 1
 369 679 290 592 290 436 c 0
 290 251 400 180 400 180 c 1
 460 320 l 1
 600 320 l 1
 600 270 657 148 750 148 c 0
 811 148 842 172 862 219 c 1
 847 210 842 209 822 209 c 0
 702 209 622 294 622 409 c 0
 622 524 712 609 822 609 c 0
 1003 609 1062 461 1062 348 c 0
 1062 115 927 -12 770 -12 c 0
 572 -12 520 120 520 120 c 1
 472 -12 l 1
 199 -12 80 192 80 436 c 0
 80 680 264 860 492 860 c 0
 628 860 764 860 900 860 c 1
 900 860 966 1088 1180 1088 c 1
822 489 m 0
 778 489 742 453 742 409 c 0
 742 365 778 329 822 329 c 0
 866 329 902 365 902 409 c 0
 902 453 866 489 822 489 c 0
EndSplineSet
Validated: 1
EndChar

StartChar: uni0E59
Encoding: 249 3673 90
Width: 1182
VWidth: 0
Flags: W
LayerCount: 2
Back
SplineSet
1182 1100 m 5xbf
 1182 900 l 5
 1073 900 1054 756 1054 420 c 5
 894 420 l 5
 894 420 893 682 784 682 c 4
 754 682 737 666 737 620 c 4
 737 544 810 378 810 0 c 5
 620 0 l 5x7f
 620 409 527 682 404 682 c 4
 337 682 290 586 290 430 c 4
 290 410 293 390 294 371 c 5
 318 382 345 388 374 388 c 4
 484 388 574 298 574 188 c 4
 574 78 484 -12 374 -12 c 4
 156 -12 80 186 80 430 c 4
 80 674 193 872 384 872 c 4
 482 872 548 833 601 769 c 5
 659 843 705 872 764 872 c 4
 824 872 853 850 885 827 c 5
 921 929 1009 1100 1182 1100 c 5xbf
374 268 m 4
 330 268 294 232 294 188 c 4
 294 144 330 108 374 108 c 4xbf
 418 108 454 144 454 188 c 4
 454 232 418 268 374 268 c 4
EndSplineSet
EndChar

StartChar: uni0E10.descless
Encoding: 63232 63232 2
Width: 610
VWidth: 0
Flags: W
HStem: 104 65<174.488 254.997> 259 65<174.488 255.195> 520 86<493.007 550> 532 80<220.044 401.805>
VStem: 105 65<173.488 254.512> 395 100<95.0415 330.42>
LayerCount: 2
Fore
SplineSet
300 612 m 0xdc
 388 612 431 581 460 550 c 1
 480 577 519 606 550 606 c 1
 550 520 l 1xec
 519 520 479 487 460 460 c 1
 404 516 354 532 300 532 c 0
 226 532 170 471 170 439 c 1
 345 419 495 406 495 304 c 0
 495 214 495 12 495 12 c 1
 495 12 455 -12 385 -12 c 1
 385 -12 346 123 309 162 c 1
 293 132 262 104 215 104 c 0
 154 104 105 153 105 214 c 0
 105 275 154 324 215 324 c 0
 343 324 410 95 410 95 c 1
 410 95 395 152 395 190 c 0
 395 217 395 274 395 301 c 0
 395 366 135 369 50 379 c 1
 50 513 180 612 300 612 c 0xdc
215 259 m 0
 190 259 170 239 170 214 c 0
 170 189 190 169 215 169 c 0
 240 169 260 189 260 214 c 0
 260 239 240 259 215 259 c 0
EndSplineSet
Validated: 1
EndChar

StartChar: uni0E0D.descless
Encoding: 63247 63247 3
Width: 990
VWidth: 0
Flags: W
HStem: -12 90<603.525 767.129> -12 70<183.531 256.469> 138 70<220 255.376> 532 80<232.876 418.138>
VStem: 110 110<208 354.911> 110 70<62.6236 135.563> 260 70<61.5305 134.469> 470 110<101.379 476.129> 770 110<92.764 590>
LayerCount: 2
Fore
SplineSet
335 612 m 5x7b80
 496 612 579 515 580 344 c 4
 580 286 580 228 580 170 c 4
 580 94 635 78 680 78 c 4
 725 78 770 105 770 105 c 5
 770 166 l 5
 770 590 l 5
 880 590 l 5
 880 80 l 5
 880 80 832 -12 680 -12 c 4xbb80
 528 -12 470 43 470 170 c 4
 470 228 470 286 470 344 c 4
 470 458 441 532 335 532 c 4
 254 532 207 498 170 450 c 5
 290 399 l 5
 290 399 220 366 220 319 c 6
 220 208 l 5
 281 208 330 159 330 98 c 4
 330 37 281 -12 220 -12 c 4x7b80
 159 -12 110 37 110 98 c 6x7780
 110 299 l 6
 110 327 142 370 175 389 c 5
 60 438 l 5
 102 514 185 610 335 612 c 5x7b80
220 138 m 4
 198 138 180 120 180 98 c 4x7780
 180 76 198 58 220 58 c 4x7b80
 242 58 260 76 260 98 c 4
 260 120 242 138 220 138 c 4
EndSplineSet
Validated: 1
EndChar

StartChar: uni0E0F.short
Encoding: 63290 63290 90
Width: 690
VWidth: 0
Flags: W
HStem: -242 60<92.4375 166.83> -102 60<92.9321 167.371> -20 20G<220 310> -12 70<103.531 176.469> 138 70<104.624 140> 532 80<232.876 418.138>
VStem: 30 70<61.5305 134.469> 30 60<-179.068 -104.932> 140 110<208 381.955> 180 70<62.6236 135.563> 220 90<-75.1248 0> 470 110<-122 476.129>
LayerCount: 2
Fore
SplineSet
335 612 m 1xde90
 496 612 579 515 580 344 c 1
 580 153 580 51 580 -140 c 1
 580 -140 575 -198 470 -212 c 1
 377 -142 l 1
 304 -222 l 1
 225 -184 l 1
 207 -213 182 -242 130 -242 c 0
 78 -242 30 -197 30 -142 c 0
 30 -87 75 -42 130 -42 c 0
 162 -42 184 -56 207 -77 c 1
 215 -67 220 -38 220 0 c 1
 310 0 l 1xed30
 310 -51 276 -112 259 -130 c 1
 290 -144 l 1
 377 -45 l 1
 470 -122 l 1
 470 -122 470 159 470 344 c 0
 470 458 441 532 335 532 c 0
 254 532 207 498 170 450 c 1
 290 399 l 1
 290 399 250 366 250 319 c 2xec90
 250 98 l 2xec50
 250 37 201 -12 140 -12 c 0
 79 -12 30 37 30 98 c 0
 30 159 79 208 140 208 c 1
 140 299 l 2
 140 327 142 370 175 389 c 1
 60 438 l 1
 102 514 185 610 335 612 c 1xde90
140 138 m 0xdc90
 118 138 100 120 100 98 c 0
 100 76 118 58 140 58 c 0xde90
 162 58 180 76 180 98 c 0xdc50
 180 120 162 138 140 138 c 0xdc90
130 -102 m 0
 108 -102 90 -120 90 -142 c 0xcd10
 90 -164 108 -182 130 -182 c 0
 152 -182 170 -164 170 -142 c 0
 170 -120 152 -102 130 -102 c 0
EndSplineSet
Validated: 1
EndChar

StartChar: uni0E0F.shorten
Encoding: 284 63290 78
Width: 640
VWidth: 0
Flags: W
HStem: -210 55<166.5 233.633> -85 55<166.5 233.729> -6 70<113.153 187.452> 144 70<114.624 159.966> 527 85<239.743 403.379>
VStem: 40 70<67.5305 140.469> 110 55<-153.5 -86.5001> 160 100<214 371.255> 190 70<68.6236 141.563> 260 70<-42.5554 10> 460 100<-130 469.733>
LayerCount: 2
Back
SplineSet
320 612 m 0xfd20
 453 612 560 529 560 372 c 2
 560 -260 l 2
 560 -333 435 -340 435 -340 c 5
 385 -250 l 1
 340 -334 l 1
 290 -334 l 1
 271 -305 l 1
 255 -326 229 -340 200 -340 c 0
 150 -340 110 -300 110 -250 c 0
 110 -200 150 -160 200 -160 c 0
 218 -160 235 -165 249 -174 c 1
 255 -156 260 -137 260 -120 c 1
 330 -120 l 1xfa60
 330 -166 311 -206 295 -232 c 1
 315 -265 l 1
 364 -170 l 1
 410 -170 l 1
 460 -260 l 1
 460 372 l 2
 460 476 398 527 320 527 c 0
 262 527 209 493 190 440 c 1xf8a0
 310 415 l 1
 310 415 261 352 260 290 c 1xf920
 260 104 l 2xf8a0
 260 43 216 -6 155 -6 c 0
 94 -6 40 43 40 104 c 0
 40 165 89 214 150 214 c 2
 160 214 l 1
 160 270 l 2
 160 354 200 390 200 390 c 1
 80 410 l 1
 108 500 189 612 320 612 c 0xfd20
150 144 m 0
 128 144 110 126 110 104 c 0
 110 82 128 64 150 64 c 0
 172 64 190 82 190 104 c 0xfca0
 190 126 172 144 150 144 c 0
200 -215 m 0
 181 -215 165 -231 165 -250 c 0xfa20
 165 -269 181 -285 200 -285 c 0
 219 -285 235 -269 235 -250 c 0
 235 -231 219 -215 200 -215 c 0
EndSplineSet
Fore
SplineSet
320 612 m 0xfd20
 453 612 560 529 560 372 c 2
 560 -130 l 2
 560 -203 435 -210 435 -210 c 1
 385 -120 l 1
 340 -204 l 1
 290 -204 l 1
 271 -175 l 1
 255 -196 229 -210 200 -210 c 0
 150 -210 110 -170 110 -120 c 0
 110 -70 150 -30 200 -30 c 0
 218 -30 235 -35 249 -44 c 1
 255 -26 260 -7 260 10 c 1
 330 10 l 1xfa60
 330 -36 311 -76 295 -102 c 1
 315 -135 l 1
 364 -40 l 1
 410 -40 l 1
 460 -130 l 1
 460 372 l 2
 460 476 398 527 320 527 c 0
 262 527 209 493 190 440 c 1xf8a0
 310 415 l 1
 310 415 261 352 260 290 c 1xf920
 260 104 l 2xf8a0
 260 43 216 -6 155 -6 c 0
 94 -6 40 43 40 104 c 0
 40 165 89 214 150 214 c 2
 160 214 l 1
 160 270 l 2
 160 354 200 390 200 390 c 1
 80 410 l 1
 108 500 189 612 320 612 c 0xfd20
150 144 m 0
 128 144 110 126 110 104 c 0
 110 82 128 64 150 64 c 0
 172 64 190 82 190 104 c 0xfca0
 190 126 172 144 150 144 c 0
200 -85 m 0
 181 -85 165 -101 165 -120 c 0xfa20
 165 -139 181 -155 200 -155 c 0
 219 -155 235 -139 235 -120 c 0
 235 -101 219 -85 200 -85 c 0
EndSplineSet
Validated: 1
EndChar

StartChar: uni0E0E.short
Encoding: 63291 63291 91
Width: 690
VWidth: 0
Flags: W
HStem: -242 60<167.437 242.211> -102 60<167.726 242.264> -20 20G<275 370> -12 70<103.531 176.469> 138 70<104.624 140> 532 80<232.876 418.138>
VStem: 30 70<61.5305 134.469> 105 60<-179.068 -104.932> 140 110<208 381.955> 180 70<62.6236 135.563> 275 95<-57.8896 0> 470 110<-141.948 476.129>
LayerCount: 5
Fore
SplineSet
335 612 m 1xdeb0
 496 612 579 515 580 344 c 0
 580 173 580 51 580 -140 c 1
 580 -140 553 -198 470 -212 c 1
 470 -212 373 -197 314 -162 c 1
 293 -205 259 -242 205 -242 c 0
 153 -242 105 -197 105 -142 c 0xdf30
 105 -87 149 -42 205 -42 c 0
 232 -42 243 -48 262 -59 c 1
 269 -44 275 -20 275 0 c 1
 370 0 l 1
 370 -28 356 -83 341 -101 c 1
 388 -128 470 -142 470 -142 c 1
 470 59 470 129 470 344 c 0
 470 458 441 532 335 532 c 0
 254 532 207 498 170 450 c 1
 290 399 l 1
 290 399 250 366 250 319 c 2xeeb0
 250 98 l 2xee70
 250 37 201 -12 140 -12 c 0
 79 -12 30 37 30 98 c 0
 30 159 79 208 140 208 c 1
 140 299 l 2
 140 327 142 370 175 389 c 1
 60 438 l 1
 102 514 185 610 335 612 c 1xdeb0
140 138 m 0xdeb0
 118 138 100 120 100 98 c 0
 100 76 118 58 140 58 c 0xdeb0
 162 58 180 76 180 98 c 0xde70
 180 120 162 138 140 138 c 0xdeb0
205 -102 m 0
 183 -102 165 -120 165 -142 c 0xcf30
 165 -164 183 -182 205 -182 c 0
 227 -182 245 -164 245 -142 c 0
 245 -120 227 -102 205 -102 c 0
EndSplineSet
Validated: 1
EndChar
